<?xml version="1.0" encoding="iso-8859-1"?>
<!DOCTYPE svg PUBLIC "-//W3C//DTD SVG 20000802//EN"
"http://www.w3.org/TR/2000/CR-SVG-20000802/DTD/svg-20000802.dtd">
<svg width="6.802083333333333in" height="5.28125in" viewBox="40 35 653 507">
	<polygon points="513,293 510,300 516,300 " 
		style="fill:none; stroke:#000000; stroke-width:1; stroke-dasharray:0 "/>
	<line x1="513" y1="299" x2="513" y2="309" 
		style="fill:none; stroke:#000000; stroke-width:1; stroke-dasharray:0 "/>
	<line x1="136" y1="309" x2="513" y2="309" 
		style="fill:none; stroke:#000000; stroke-width:1; stroke-dasharray:0 "/>
	<polygon points="195,126 192,133 198,133 " 
		style="fill:none; stroke:#000000; stroke-width:1; stroke-dasharray:0 "/>
	<line x1="195" y1="132" x2="195" y2="164" 
		style="fill:none; stroke:#000000; stroke-width:1; stroke-dasharray:0 "/>
	<line x1="90" y1="164" x2="331" y2="164" 
		style="fill:none; stroke:#000000; stroke-width:1; stroke-dasharray:0 "/>
	<polygon points="160,76 157,83 163,83 " 
		style="fill:none; stroke:#000000; stroke-width:1; stroke-dasharray:0 "/>
	<line x1="160" y1="82" x2="160" y2="92" 
		style="fill:none; stroke:#000000; stroke-width:1; stroke-dasharray:0 "/>
	<line x1="114" y1="92" x2="320" y2="92" 
		style="fill:none; stroke:#000000; stroke-width:1; stroke-dasharray:0 "/>
	<rect x="475" y="194" width="77" height="99" 
		style="fill:#ffcc99; stroke:#424242; stroke-width:1; stroke-dasharray:0 "/>
	<text x="479" y="207" 
		style="font-family:Verdana; font-weight:bold; font-size:10; fill:#000000">Declaration</text>
	<line x1="475" y1="217" x2="552" y2="217" 
		style="fill:none; stroke:#424242; stroke-width:1; stroke-dasharray:0 "/>
	<text x="478" y="227" 
		style="font-family:Verdana; font-size:10; fill:#000000">file</text>
	<text x="478" y="241" 
		style="font-family:Verdana; font-size:10; fill:#000000">language</text>
	<text x="478" y="255" 
		style="font-family:Verdana; font-size:10; fill:#000000">line</text>
	<text x="478" y="269" 
		style="font-family:Verdana; font-size:10; fill:#000000">name</text>
	<text x="478" y="283" 
		style="font-family:Verdana; font-size:10; fill:#000000">type</text>
	<polygon points="513,293 510,300 516,300 " 
		style="fill:none; stroke:#000000; stroke-width:1; stroke-dasharray:0 "/>
	<line x1="513" y1="299" x2="513" y2="309" 
		style="fill:none; stroke:#000000; stroke-width:1; stroke-dasharray:0 "/>
	<line x1="463" y1="309" x2="555" y2="309" 
		style="fill:none; stroke:#000000; stroke-width:1; stroke-dasharray:0 "/>
	<rect x="71" y="100" width="87" height="43" 
		style="fill:#ffcc99; stroke:#424242; stroke-width:1; stroke-dasharray:0 "/>
	<text x="75" y="113" 
		style="font-family:Verdana; font-weight:bold; font-size:10; fill:#000000">Parametrized</text>
	<line x1="71" y1="123" x2="158" y2="123" 
		style="fill:none; stroke:#424242; stroke-width:1; stroke-dasharray:0 "/>
	<text x="74" y="133" 
		style="font-family:Verdana; font-size:10; fill:#000000">template</text>
	<rect x="205" y="494" width="82" height="43" 
		style="fill:#ffcc99; stroke:#424242; stroke-width:1; stroke-dasharray:0 "/>
	<text x="209" y="507" 
		style="font-family:Verdana; font-weight:bold; font-size:10; fill:#000000">MetaModule</text>
	<line x1="205" y1="517" x2="287" y2="517" 
		style="fill:none; stroke:#424242; stroke-width:1; stroke-dasharray:0 "/>
	<text x="208" y="527" 
		style="font-family:Verdana; font-size:10; fill:#000000">parts</text>
	<rect x="375" y="354" width="78" height="26" 
		style="fill:#ffcc99; stroke:#424242; stroke-width:1; stroke-dasharray:0 "/>
	<text x="378" y="367" 
		style="font-family:Verdana; font-weight:bold; font-size:10; fill:#000000">Enumerator</text>
	<rect x="355" y="464" width="75" height="26" 
		style="fill:#ffcc99; stroke:#424242; stroke-width:1; stroke-dasharray:0 "/>
	<text x="359" y="477" 
		style="font-family:Verdana; font-weight:bold; font-size:10; fill:#000000">Inheritance</text>
	<rect x="121" y="180" width="74" height="26" 
		style="fill:#ffcc99; stroke:#424242; stroke-width:1; stroke-dasharray:0 "/>
	<text x="125" y="193" 
		style="font-family:Verdana; font-weight:bold; font-size:10; fill:#000000">Dependent</text>
	<rect x="301" y="240" width="71" height="43" 
		style="fill:#ffcc99; stroke:#424242; stroke-width:1; stroke-dasharray:0 "/>
	<text x="308" y="253" 
		style="font-family:Verdana; font-weight:bold; font-size:10; fill:#000000">Template</text>
	<line x1="301" y1="263" x2="372" y2="263" 
		style="fill:none; stroke:#424242; stroke-width:1; stroke-dasharray:0 "/>
	<text x="304" y="273" 
		style="font-family:Verdana; font-size:10; fill:#000000">parameters</text>
	<rect x="525" y="334" width="71" height="43" 
		style="fill:#ffcc99; stroke:#424242; stroke-width:1; stroke-dasharray:0 "/>
	<text x="534" y="347" 
		style="font-family:Verdana; font-weight:bold; font-size:10; fill:#000000">Function</text>
	<line x1="525" y1="357" x2="596" y2="357" 
		style="fill:none; stroke:#424242; stroke-width:1; stroke-dasharray:0 "/>
	<text x="528" y="367" 
		style="font-family:Verdana; font-size:10; fill:#000000">parameters</text>
	<rect x="301" y="180" width="69" height="43" 
		style="fill:#ffcc99; stroke:#424242; stroke-width:1; stroke-dasharray:0 "/>
	<text x="309" y="193" 
		style="font-family:Verdana; font-weight:bold; font-size:10; fill:#000000">Declared</text>
	<line x1="301" y1="203" x2="370" y2="203" 
		style="fill:none; stroke:#424242; stroke-width:1; stroke-dasharray:0 "/>
	<text x="304" y="213" 
		style="font-family:Verdana; font-size:10; fill:#000000">declaration</text>
	<rect x="525" y="394" width="68" height="26" 
		style="fill:#ffcc99; stroke:#424242; stroke-width:1; stroke-dasharray:0 "/>
	<text x="529" y="407" 
		style="font-family:Verdana; font-weight:bold; font-size:10; fill:#000000">Operation</text>
	<rect x="615" y="354" width="68" height="26" 
		style="fill:#ffcc99; stroke:#424242; stroke-width:1; stroke-dasharray:0 "/>
	<text x="618" y="367" 
		style="font-family:Verdana; font-weight:bold; font-size:10; fill:#000000">Parameter</text>
	<rect x="211" y="180" width="66" height="26" 
		style="fill:#ffcc99; stroke:#424242; stroke-width:1; stroke-dasharray:0 "/>
	<text x="215" y="193" 
		style="font-family:Verdana; font-weight:bold; font-size:10; fill:#000000">Unknown</text>
	<rect x="231" y="100" width="58" height="26" 
		style="fill:#ffcc99; stroke:#424242; stroke-width:1; stroke-dasharray:0 "/>
	<text x="234" y="113" 
		style="font-family:Verdana; font-weight:bold; font-size:10; fill:#000000">Modifier</text>
	<rect x="301" y="100" width="39" height="57" 
		style="fill:#ffcc99; stroke:#424242; stroke-width:1; stroke-dasharray:0 "/>
	<text x="304" y="113" 
		style="font-family:Verdana; font-weight:bold; font-size:10; fill:#000000">Array</text>
	<line x1="301" y1="123" x2="340" y2="123" 
		style="fill:none; stroke:#424242; stroke-width:1; stroke-dasharray:0 "/>
	<text x="304" y="133" 
		style="font-family:Verdana; font-size:10; fill:#000000">sizes</text>
	<text x="304" y="147" 
		style="font-family:Verdana; font-size:10; fill:#000000">type</text>
	<rect x="145" y="374" width="57" height="26" 
		style="fill:#ffcc99; stroke:#424242; stroke-width:1; stroke-dasharray:0 "/>
	<text x="149" y="387" 
		style="font-family:Verdana; font-weight:bold; font-size:10; fill:#000000">Forward</text>
	<rect x="435" y="394" width="56" height="26" 
		style="fill:#ffcc99; stroke:#424242; stroke-width:1; stroke-dasharray:0 "/>
	<text x="438" y="407" 
		style="font-family:Verdana; font-weight:bold; font-size:10; fill:#000000">Variable</text>
	<rect x="185" y="334" width="56" height="26" 
		style="fill:#ffcc99; stroke:#424242; stroke-width:1; stroke-dasharray:0 "/>
	<text x="188" y="347" 
		style="font-family:Verdana; font-weight:bold; font-size:10; fill:#000000">Typedef</text>
	<polygon points="276,410 273,417 279,417 " 
		style="fill:none; stroke:#000000; stroke-width:1; stroke-dasharray:0 "/>
	<line x1="276" y1="416" x2="276" y2="426" 
		style="fill:none; stroke:#000000; stroke-width:1; stroke-dasharray:0 "/>
	<line x1="251" y1="426" x2="305" y2="426" 
		style="fill:none; stroke:#000000; stroke-width:1; stroke-dasharray:0 "/>
	<rect x="225" y="444" width="52" height="26" 
		style="fill:#ffcc99; stroke:#424242; stroke-width:1; stroke-dasharray:0 "/>
	<text x="229" y="457" 
		style="font-family:Verdana; font-weight:bold; font-size:10; fill:#000000">Module</text>
	<rect x="171" y="100" width="49" height="26" 
		style="fill:#ffcc99; stroke:#424242; stroke-width:1; stroke-dasharray:0 "/>
	<text x="175" y="113" 
		style="font-family:Verdana; font-weight:bold; font-size:10; fill:#000000">Named</text>
	<rect x="285" y="444" width="48" height="43" 
		style="fill:#ffcc99; stroke:#424242; stroke-width:1; stroke-dasharray:0 "/>
	<text x="293" y="457" 
		style="font-family:Verdana; font-weight:bold; font-size:10; fill:#000000">Class</text>
	<line x1="285" y1="467" x2="333" y2="467" 
		style="fill:none; stroke:#424242; stroke-width:1; stroke-dasharray:0 "/>
	<text x="288" y="477" 
		style="font-family:Verdana; font-size:10; fill:#000000">parents</text>
	<rect x="255" y="334" width="44" height="26" 
		style="fill:#ffcc99; stroke:#424242; stroke-width:1; stroke-dasharray:0 "/>
	<text x="258" y="347" 
		style="font-family:Verdana; font-weight:bold; font-size:10; fill:#000000">Group</text>
	<rect x="315" y="334" width="41" height="43" 
		style="fill:#ffcc99; stroke:#424242; stroke-width:1; stroke-dasharray:0 "/>
	<text x="319" y="347" 
		style="font-family:Verdana; font-weight:bold; font-size:10; fill:#000000">Enum</text>
	<line x1="315" y1="357" x2="356" y2="357" 
		style="fill:none; stroke:#424242; stroke-width:1; stroke-dasharray:0 "/>
	<text x="318" y="367" 
		style="font-family:Verdana; font-size:10; fill:#000000">values</text>
	<rect x="115" y="334" width="43" height="26" 
		style="fill:#ffcc99; stroke:#424242; stroke-width:1; stroke-dasharray:0 "/>
	<text x="119" y="347" 
		style="font-family:Verdana; font-weight:bold; font-size:10; fill:#000000">Macro</text>
	<rect x="485" y="434" width="43" height="26" 
		style="fill:#ffcc99; stroke:#424242; stroke-width:1; stroke-dasharray:0 "/>
	<text x="488" y="447" 
		style="font-family:Verdana; font-weight:bold; font-size:10; fill:#000000">Const</text>
	<rect x="255" y="384" width="42" height="26" 
		style="fill:#ffcc99; stroke:#424242; stroke-width:1; stroke-dasharray:0 "/>
	<text x="258" y="397" 
		style="font-family:Verdana; font-weight:bold; font-size:10; fill:#000000">Scope</text>
	<rect x="71" y="180" width="39" height="26" 
		style="fill:#ffcc99; stroke:#424242; stroke-width:1; stroke-dasharray:0 "/>
	<text x="77" y="193" 
		style="font-family:Verdana; font-weight:bold; font-size:10; fill:#000000">Base</text>
	<rect x="141" y="50" width="39" height="26" 
		style="fill:#ffcc99; stroke:#424242; stroke-width:1; stroke-dasharray:0 "/>
	<text x="146" y="63" 
		style="font-family:Verdana; font-weight:bold; font-size:10; fill:#000000">Type</text>
	<polygon points="301,274 296,272 289,274 296,276 " 
		style="fill:none; stroke:#424242; stroke-width:1; stroke-dasharray:0 "/>
	<line x1="289" y1="274" x2="50" y2="274" 
		style="fill:none; stroke:#424242; stroke-width:1; stroke-dasharray:0 "/>
	<line x1="50" y1="274" x2="50" y2="64" 
		style="fill:none; stroke:#424242; stroke-width:1; stroke-dasharray:0 "/>
	<line x1="50" y1="64" x2="141" y2="64" 
		style="fill:none; stroke:#424242; stroke-width:1; stroke-dasharray:0 "/>
	<polygon points="71,134 66,132 59,134 66,136 " 
		style="fill:none; stroke:#424242; stroke-width:1; stroke-dasharray:0 "/>
	<line x1="59" y1="134" x2="60" y2="134" 
		style="fill:none; stroke:#424242; stroke-width:1; stroke-dasharray:0 "/>
	<line x1="60" y1="134" x2="60" y2="249" 
		style="fill:none; stroke:#424242; stroke-width:1; stroke-dasharray:0 "/>
	<line x1="60" y1="249" x2="301" y2="249" 
		style="fill:none; stroke:#424242; stroke-width:1; stroke-dasharray:0 "/>
	<polygon points="340,144 345,146 352,144 345,142 " 
		style="fill:none; stroke:#424242; stroke-width:1; stroke-dasharray:0 "/>
	<line x1="352" y1="144" x2="365" y2="144" 
		style="fill:none; stroke:#424242; stroke-width:1; stroke-dasharray:0 "/>
	<line x1="365" y1="144" x2="365" y2="64" 
		style="fill:none; stroke:#424242; stroke-width:1; stroke-dasharray:0 "/>
	<line x1="365" y1="64" x2="180" y2="64" 
		style="fill:none; stroke:#424242; stroke-width:1; stroke-dasharray:0 "/>
	<line x1="506" y1="309" x2="506" y2="434" 
		style="fill:none; stroke:#424242; stroke-width:1; stroke-dasharray:0 "/>
	<polygon points="430,479 435,481 442,479 435,477 " 
		style="fill:none; stroke:#424242; stroke-width:1; stroke-dasharray:0 "/>
	<line x1="442" y1="479" x2="450" y2="479" 
		style="fill:none; stroke:#424242; stroke-width:1; stroke-dasharray:0 "/>
	<line x1="450" y1="479" x2="450" y2="454" 
		style="fill:none; stroke:#424242; stroke-width:1; stroke-dasharray:0 "/>
	<line x1="450" y1="454" x2="333" y2="454" 
		style="fill:none; stroke:#424242; stroke-width:1; stroke-dasharray:0 "/>
	<polygon points="370,209 375,211 382,209 375,207 " 
		style="fill:none; stroke:#424242; stroke-width:1; stroke-dasharray:0 "/>
	<line x1="382" y1="209" x2="475" y2="209" 
		style="fill:none; stroke:#424242; stroke-width:1; stroke-dasharray:0 "/>
	<line x1="463" y1="309" x2="463" y2="394" 
		style="fill:none; stroke:#424242; stroke-width:1; stroke-dasharray:0 "/>
	<polygon points="205,529 200,527 193,529 200,531 " 
		style="fill:none; stroke:#424242; stroke-width:1; stroke-dasharray:0 "/>
	<polygon points="205,529 200,527 193,529 200,531 " 
		style="fill:#424242; stroke:#424242; stroke-width:1; stroke-dasharray:0 "/>
	<line x1="193" y1="529" x2="190" y2="529" 
		style="fill:none; stroke:#424242; stroke-width:1; stroke-dasharray:0 "/>
	<line x1="190" y1="529" x2="190" y2="459" 
		style="fill:none; stroke:#424242; stroke-width:1; stroke-dasharray:0 "/>
	<line x1="190" y1="459" x2="225" y2="459" 
		style="fill:none; stroke:#424242; stroke-width:1; stroke-dasharray:0 "/>
	<line x1="173" y1="309" x2="173" y2="374" 
		style="fill:none; stroke:#424242; stroke-width:1; stroke-dasharray:0 "/>
	<line x1="414" y1="309" x2="414" y2="354" 
		style="fill:none; stroke:#424242; stroke-width:1; stroke-dasharray:0 "/>
	<line x1="335" y1="309" x2="335" y2="334" 
		style="fill:none; stroke:#424242; stroke-width:1; stroke-dasharray:0 "/>
	<line x1="213" y1="309" x2="213" y2="334" 
		style="fill:none; stroke:#424242; stroke-width:1; stroke-dasharray:0 "/>
	<line x1="277" y1="309" x2="277" y2="334" 
		style="fill:none; stroke:#424242; stroke-width:1; stroke-dasharray:0 "/>
	<line x1="136" y1="309" x2="136" y2="334" 
		style="fill:none; stroke:#424242; stroke-width:1; stroke-dasharray:0 "/>
	<line x1="555" y1="309" x2="555" y2="334" 
		style="fill:none; stroke:#424242; stroke-width:1; stroke-dasharray:0 "/>
	<polygon points="275,360 272,367 278,367 " 
		style="fill:none; stroke:#424242; stroke-width:1; stroke-dasharray:0 "/>
	<line x1="275" y1="366" x2="275" y2="384" 
		style="fill:none; stroke:#424242; stroke-width:1; stroke-dasharray:0 "/>
	<polygon points="250,470 247,477 253,477 " 
		style="fill:none; stroke:#424242; stroke-width:1; stroke-dasharray:0 "/>
	<line x1="250" y1="476" x2="250" y2="494" 
		style="fill:none; stroke:#424242; stroke-width:1; stroke-dasharray:0 "/>
	<polygon points="333,479 338,481 345,479 338,477 " 
		style="fill:none; stroke:#424242; stroke-width:1; stroke-dasharray:0 "/>
	<polygon points="333,479 338,481 345,479 338,477 " 
		style="fill:#424242; stroke:#424242; stroke-width:1; stroke-dasharray:0 "/>
	<line x1="345" y1="479" x2="355" y2="479" 
		style="fill:none; stroke:#424242; stroke-width:1; stroke-dasharray:0 "/>
	<polygon points="356,364 361,366 368,364 361,362 " 
		style="fill:none; stroke:#424242; stroke-width:1; stroke-dasharray:0 "/>
	<polygon points="356,364 361,366 368,364 361,362 " 
		style="fill:#424242; stroke:#424242; stroke-width:1; stroke-dasharray:0 "/>
	<line x1="368" y1="364" x2="375" y2="364" 
		style="fill:none; stroke:#424242; stroke-width:1; stroke-dasharray:0 "/>
	<polygon points="596,364 601,366 608,364 601,362 " 
		style="fill:none; stroke:#424242; stroke-width:1; stroke-dasharray:0 "/>
	<polygon points="596,364 601,366 608,364 601,362 " 
		style="fill:#424242; stroke:#424242; stroke-width:1; stroke-dasharray:0 "/>
	<line x1="608" y1="364" x2="615" y2="364" 
		style="fill:none; stroke:#424242; stroke-width:1; stroke-dasharray:0 "/>
	<line x1="251" y1="426" x2="251" y2="444" 
		style="fill:none; stroke:#424242; stroke-width:1; stroke-dasharray:0 "/>
	<line x1="305" y1="426" x2="305" y2="444" 
		style="fill:none; stroke:#424242; stroke-width:1; stroke-dasharray:0 "/>
	<polygon points="555,377 552,384 558,384 " 
		style="fill:none; stroke:#424242; stroke-width:1; stroke-dasharray:0 "/>
	<line x1="555" y1="383" x2="555" y2="394" 
		style="fill:none; stroke:#424242; stroke-width:1; stroke-dasharray:0 "/>
	<polygon points="331,223 328,230 334,230 " 
		style="fill:none; stroke:#424242; stroke-width:1; stroke-dasharray:0 "/>
	<line x1="331" y1="229" x2="331" y2="240" 
		style="fill:none; stroke:#424242; stroke-width:1; stroke-dasharray:0 "/>
	<line x1="331" y1="164" x2="331" y2="180" 
		style="fill:none; stroke:#424242; stroke-width:1; stroke-dasharray:0 "/>
	<line x1="244" y1="164" x2="244" y2="180" 
		style="fill:none; stroke:#424242; stroke-width:1; stroke-dasharray:0 "/>
	<line x1="90" y1="164" x2="90" y2="180" 
		style="fill:none; stroke:#424242; stroke-width:1; stroke-dasharray:0 "/>
	<line x1="158" y1="164" x2="158" y2="180" 
		style="fill:none; stroke:#424242; stroke-width:1; stroke-dasharray:0 "/>
	<line x1="114" y1="92" x2="114" y2="100" 
		style="fill:none; stroke:#424242; stroke-width:1; stroke-dasharray:0 "/>
	<line x1="260" y1="92" x2="260" y2="100" 
		style="fill:none; stroke:#424242; stroke-width:1; stroke-dasharray:0 "/>
	<line x1="320" y1="92" x2="320" y2="100" 
		style="fill:none; stroke:#424242; stroke-width:1; stroke-dasharray:0 "/>
	<line x1="195" y1="92" x2="195" y2="100" 
		style="fill:none; stroke:#424242; stroke-width:1; stroke-dasharray:0 "/>
</svg>