<?xml version="1.0" encoding="UTF-8" standalone="no"?>
<svg
   xmlns:dc="http://purl.org/dc/elements/1.1/"
   xmlns:cc="http://web.resource.org/cc/"
   xmlns:rdf="http://www.w3.org/1999/02/22-rdf-syntax-ns#"
   xmlns:svg="http://www.w3.org/2000/svg"
   xmlns="http://www.w3.org/2000/svg"
   xmlns:sodipodi="http://sodipodi.sourceforge.net/DTD/sodipodi-0.dtd"
   xmlns:inkscape="http://www.inkscape.org/namespaces/inkscape"
   fill-opacity="1"
   color-rendering="auto"
   color-interpolation="auto"
   stroke="black"
   text-rendering="auto"
   stroke-linecap="square"
   width="5.3125in"
   stroke-miterlimit="10"
   stroke-opacity="1"
   shape-rendering="auto"
   fill="black"
   stroke-dasharray="none"
   font-weight="normal"
   stroke-width="1"
   viewBox="0 0 510 447"
   height="4.65625in"
   font-family="'Dialog'"
   font-style="normal"
   stroke-linejoin="miter"
   font-size="12"
   stroke-dashoffset="0"
   image-rendering="auto"
   id="svg15990"
   sodipodi:version="0.32"
   inkscape:version="0.45.1"
   sodipodi:docname="ir.svg"
   sodipodi:docbase="/home/stefan/projects/Synopsis_0_8/doc/Tutorial/images"
   inkscape:output_extension="org.inkscape.output.svg.inkscape"
   inkscape:export-filename="/home/stefan/projects/Synopsis_0_8/doc/Tutorial/images/ir.png"
   inkscape:export-xdpi="92.370003"
   inkscape:export-ydpi="92.370003">
  <metadata
     id="metadata16367">
    <rdf:RDF>
      <cc:Work
         rdf:about="">
        <dc:format>image/svg+xml</dc:format>
        <dc:type
           rdf:resource="http://purl.org/dc/dcmitype/StillImage" />
      </cc:Work>
    </rdf:RDF>
  </metadata>
  <sodipodi:namedview
     inkscape:window-height="888"
     inkscape:window-width="1221"
     inkscape:pageshadow="2"
     inkscape:pageopacity="0.0"
     guidetolerance="10.0"
     gridtolerance="10.0"
     objecttolerance="10.0"
     borderopacity="1.0"
     bordercolor="#666666"
     pagecolor="#ffffff"
     id="base"
     inkscape:zoom="1.0451902"
     inkscape:cx="239.0625"
     inkscape:cy="209.53125"
     inkscape:window-x="171"
     inkscape:window-y="133"
     inkscape:current-layer="svg15990" />
<!--Generated by the Batik Graphics2D SVG Generator
 This is MagicDraw diagram.-->  <defs
     id="genericDefs">
    <defs
       id="defs1">
      <linearGradient
         spreadMethod="pad"
         id="linearGradient1"
         y2="336"
         y1="63"
         x2="560"
         gradientUnits="userSpaceOnUse"
         x1="70">
        <stop
           id="stop15997"
           offset="0%"
           stop-color="rgb(204,204,255)"
           stop-opacity="1" />
        <stop
           id="stop15999"
           offset="100%"
           stop-color="white"
           stop-opacity="1" />
      </linearGradient>
      <linearGradient
         spreadMethod="pad"
         id="linearGradient2"
         y2="257"
         y1="200"
         x2="404"
         gradientUnits="userSpaceOnUse"
         x1="319">
        <stop
           id="stop16002"
           offset="0%"
           stop-color="rgb(255,204,153)"
           stop-opacity="1" />
        <stop
           id="stop16004"
           offset="100%"
           stop-color="rgb(255,255,218)"
           stop-opacity="1" />
      </linearGradient>
      <linearGradient
         spreadMethod="pad"
         id="linearGradient3"
         y2="207"
         y1="137"
         x2="269"
         gradientUnits="userSpaceOnUse"
         x1="193">
        <stop
           id="stop16007"
           offset="0%"
           stop-color="rgb(255,204,153)"
           stop-opacity="1" />
        <stop
           id="stop16009"
           offset="100%"
           stop-color="rgb(255,255,218)"
           stop-opacity="1" />
      </linearGradient>
      <linearGradient
         spreadMethod="pad"
         id="linearGradient4"
         y2="305"
         y1="279"
         x2="399"
         gradientUnits="userSpaceOnUse"
         x1="323">
        <stop
           id="stop16012"
           offset="0%"
           stop-color="rgb(255,204,153)"
           stop-opacity="1" />
        <stop
           id="stop16014"
           offset="100%"
           stop-color="rgb(255,255,218)"
           stop-opacity="1" />
      </linearGradient>
      <linearGradient
         spreadMethod="pad"
         id="linearGradient5"
         y2="260"
         y1="203"
         x2="549"
         gradientUnits="userSpaceOnUse"
         x1="476">
        <stop
           id="stop16017"
           offset="0%"
           stop-color="rgb(255,204,153)"
           stop-opacity="1" />
        <stop
           id="stop16019"
           offset="100%"
           stop-color="rgb(255,255,218)"
           stop-opacity="1" />
      </linearGradient>
      <linearGradient
         spreadMethod="pad"
         id="linearGradient6"
         y2="280"
         y1="210"
         x2="140"
         gradientUnits="userSpaceOnUse"
         x1="91">
        <stop
           id="stop16022"
           offset="0%"
           stop-color="rgb(255,204,153)"
           stop-opacity="1" />
        <stop
           id="stop16024"
           offset="100%"
           stop-color="rgb(255,255,218)"
           stop-opacity="1" />
      </linearGradient>
      <linearGradient
         spreadMethod="pad"
         id="linearGradient7"
         y2="317"
         y1="273"
         x2="545"
         gradientUnits="userSpaceOnUse"
         x1="476">
        <stop
           id="stop16027"
           offset="0%"
           stop-color="rgb(255,204,153)"
           stop-opacity="1" />
        <stop
           id="stop16029"
           offset="100%"
           stop-color="rgb(255,255,218)"
           stop-opacity="1" />
      </linearGradient>
      <linearGradient
         spreadMethod="pad"
         id="linearGradient8"
         y2="156"
         y1="130"
         x2="373"
         gradientUnits="userSpaceOnUse"
         x1="319">
        <stop
           id="stop16032"
           offset="0%"
           stop-color="rgb(255,204,153)"
           stop-opacity="1" />
        <stop
           id="stop16034"
           offset="100%"
           stop-color="rgb(255,255,218)"
           stop-opacity="1" />
      </linearGradient>
      <linearGradient
         spreadMethod="pad"
         id="linearGradient9"
         y2="191"
         y1="165"
         x2="367"
         gradientUnits="userSpaceOnUse"
         x1="319">
        <stop
           id="stop16037"
           offset="0%"
           stop-color="rgb(255,204,153)"
           stop-opacity="1" />
        <stop
           id="stop16039"
           offset="100%"
           stop-color="rgb(255,255,218)"
           stop-opacity="1" />
      </linearGradient>
      <linearGradient
         spreadMethod="pad"
         id="linearGradient10"
         y2="261"
         y1="235"
         x2="232"
         gradientUnits="userSpaceOnUse"
         x1="193">
        <stop
           id="stop16042"
           offset="0%"
           stop-color="rgb(255,204,153)"
           stop-opacity="1" />
        <stop
           id="stop16044"
           offset="100%"
           stop-color="rgb(255,255,218)"
           stop-opacity="1" />
      </linearGradient>
      <linearGradient
         spreadMethod="pad"
         id="linearGradient11"
         y2="327"
         y1="301"
         x2="235"
         gradientUnits="userSpaceOnUse"
         x1="196">
        <stop
           id="stop16047"
           offset="0%"
           stop-color="rgb(255,204,153)"
           stop-opacity="1" />
        <stop
           id="stop16049"
           offset="100%"
           stop-color="rgb(255,255,218)"
           stop-opacity="1" />
      </linearGradient>
      <linearGradient
         spreadMethod="pad"
         id="linearGradient12"
         y2="490"
         y1="371"
         x2="350"
         gradientUnits="userSpaceOnUse"
         x1="70">
        <stop
           id="stop16052"
           offset="0%"
           stop-color="rgb(204,204,255)"
           stop-opacity="1" />
        <stop
           id="stop16054"
           offset="100%"
           stop-color="white"
           stop-opacity="1" />
      </linearGradient>
      <linearGradient
         spreadMethod="pad"
         id="linearGradient13"
         y2="474"
         y1="448"
         x2="343"
         gradientUnits="userSpaceOnUse"
         x1="231">
        <stop
           id="stop16057"
           offset="0%"
           stop-color="rgb(255,204,153)"
           stop-opacity="1" />
        <stop
           id="stop16059"
           offset="100%"
           stop-color="rgb(255,255,218)"
           stop-opacity="1" />
      </linearGradient>
      <linearGradient
         spreadMethod="pad"
         id="linearGradient14"
         y2="474"
         y1="448"
         x2="225"
         gradientUnits="userSpaceOnUse"
         x1="133">
        <stop
           id="stop16062"
           offset="0%"
           stop-color="rgb(255,204,153)"
           stop-opacity="1" />
        <stop
           id="stop16064"
           offset="100%"
           stop-color="rgb(255,255,218)"
           stop-opacity="1" />
      </linearGradient>
      <linearGradient
         spreadMethod="pad"
         id="linearGradient15"
         y2="474"
         y1="448"
         x2="124"
         gradientUnits="userSpaceOnUse"
         x1="77">
        <stop
           id="stop16067"
           offset="0%"
           stop-color="rgb(255,204,153)"
           stop-opacity="1" />
        <stop
           id="stop16069"
           offset="100%"
           stop-color="rgb(255,255,218)"
           stop-opacity="1" />
      </linearGradient>
      <clipPath
         id="clipPath1"
         clipPathUnits="userSpaceOnUse">
        <path
           id="path16072"
           d="M0 -5 L570 -5 L570 500 L0 500 L0 -5 Z" />
      </clipPath>
      <clipPath
         id="clipPath2"
         clipPathUnits="userSpaceOnUse">
        <path
           id="path16075"
           d="M266.1565 -88.5472 L487.9357 436.5375 L22.729 633.0261 L-199.0502 107.9413 L266.1565 -88.5472 Z" />
      </clipPath>
      <clipPath
         id="clipPath3"
         clipPathUnits="userSpaceOnUse">
        <path
           id="path16078"
           d="M60 48 L630 48 L630 553 L60 553 L60 48 Z" />
      </clipPath>
    </defs>
  </defs>
  <text
     x="-14"
     xml:space="preserve"
     y="-133"
     clip-path="url(#clipPath2)"
     id="text16086"
     style="font-size:42px;fill:#dddddd;stroke:none"
     transform="matrix(0.389087,-0.921201,0.921201,0.389087,-21.988148,274.636)">For Non-commercial Use Only</text>
  <rect
     x="73"
     y="81"
     transform="translate(-59.999992,-52.999997)"
     clip-path="url(#clipPath3)"
     width="490"
     height="258"
     id="rect16094"
     style="font-size:42px;fill:#b2b2b2;stroke:none" />
  <rect
     x="73"
     y="66"
     transform="translate(-59.999992,-52.999997)"
     clip-path="url(#clipPath3)"
     width="170"
     height="15"
     id="rect16096"
     style="font-size:42px;fill:#b2b2b2;stroke:none" />
  <polygon
     clip-path="url(#clipPath3)"
     transform="translate(-59.999992,-52.999997)"
     points="240,78 240,63 70,63 70,336 560,336 560,78 70,78 240,78 "
     id="polygon16098"
     style="font-size:42px;fill:url(#linearGradient1);stroke:none" />
  <polygon
     clip-path="url(#clipPath3)"
     transform="translate(-59.999992,-52.999997)"
     points="240,78 240,63 70,63 70,336 560,336 560,78 70,78 240,78 "
     id="polygon16100"
     style="font-size:42px;fill:none;stroke:#424242" />
  <g
     style="font-size:13px;font-weight:bold;font-family:sans-serif"
     id="g16102"
     transform="translate(-60,-53)"
     font-weight="bold"
     font-size="13"
     text-rendering="geometricPrecision">
    <text
       style="stroke:none"
       id="text16104"
       clip-path="url(#clipPath3)"
       y="94"
       space="preserve"
       x="216">Synopsis (Python Package)</text>
    <rect
       style="fill:#b2b2b2;stroke:none"
       id="rect16106"
       height="57"
       width="85"
       clip-path="url(#clipPath3)"
       y="203"
       x="322" />
    <rect
       style="fill:url(#linearGradient2);stroke:none"
       id="rect16108"
       height="57"
       width="85"
       clip-path="url(#clipPath3)"
       y="200"
       x="319" />
    <rect
       style="fill:none;stroke:#424242"
       id="rect16110"
       height="57"
       width="85"
       clip-path="url(#clipPath3)"
       y="200"
       x="319" />
    <text
       style="font-size:11px;stroke:none"
       id="text16112"
       clip-path="url(#clipPath3)"
       y="214"
       font-size="11"
       space="preserve"
       x="323.5">Declaration</text>
    <line
       style="fill:none;stroke:#424242"
       id="line16114"
       y2="222"
       y1="222"
       x2="404"
       x1="319"
       clip-path="url(#clipPath3)" />
  </g>
  <text
     x="322"
     space="preserve"
     y="236"
     clip-path="url(#clipPath3)"
     id="text16118"
     style="font-size:11px;fill:#280000;stroke:none;font-family:sans-serif"
     transform="translate(-60,-53)">name</text>
  <text
     x="322"
     space="preserve"
     y="249"
     clip-path="url(#clipPath3)"
     id="text16120"
     style="font-size:11px;fill:#280000;stroke:none;font-family:sans-serif"
     transform="translate(-60,-53)">annotations</text>
  <rect
     x="196"
     y="140"
     clip-path="url(#clipPath3)"
     width="76"
     height="70"
     id="rect16122"
     style="font-size:11px;fill:#b2b2b2;stroke:none;font-family:sans-serif"
     transform="translate(-60,-53)" />
  <rect
     x="193"
     y="137"
     clip-path="url(#clipPath3)"
     width="76"
     height="70"
     id="rect16124"
     style="font-size:11px;fill:url(#linearGradient3);stroke:none;font-family:sans-serif"
     transform="translate(-60,-53)" />
  <rect
     x="193"
     y="137"
     clip-path="url(#clipPath3)"
     width="76"
     height="70"
     id="rect16126"
     style="font-size:11px;fill:none;stroke:#424242;font-family:sans-serif"
     transform="translate(-60,-53)" />
  <text
     x="197.5"
     y="151"
     clip-path="url(#clipPath3)"
     font-weight="bold"
     space="preserve"
     id="text16128"
     style="font-size:11px;font-weight:bold;fill:#000000;stroke:none;font-family:sans-serif"
     transform="translate(-60,-53)">SourceFile</text>
  <line
     clip-path="url(#clipPath3)"
     x1="193"
     x2="269"
     y1="159"
     y2="159"
     id="line16130"
     style="font-size:11px;fill:none;stroke:#424242;font-family:sans-serif"
     transform="translate(-60,-53)" />
  <text
     x="196"
     space="preserve"
     y="173"
     clip-path="url(#clipPath3)"
     id="text16132"
     style="font-size:11px;fill:#280000;stroke:none;font-family:sans-serif"
     transform="translate(-60,-53)">name</text>
  <text
     x="196"
     space="preserve"
     y="186"
     clip-path="url(#clipPath3)"
     id="text16134"
     style="font-size:11px;fill:#280000;stroke:none;font-family:sans-serif"
     transform="translate(-60,-53)">abs_name</text>
  <text
     x="196"
     space="preserve"
     y="199"
     clip-path="url(#clipPath3)"
     id="text16136"
     style="font-size:11px;fill:#280000;stroke:none;font-family:sans-serif"
     transform="translate(-60,-53)">annotations</text>
  <rect
     x="326"
     y="282"
     clip-path="url(#clipPath3)"
     width="76"
     height="26"
     id="rect16138"
     style="font-size:11px;fill:#b2b2b2;stroke:none;font-family:sans-serif"
     transform="translate(-60,-53)" />
  <rect
     x="323"
     y="279"
     clip-path="url(#clipPath3)"
     width="76"
     height="26"
     id="rect16140"
     style="font-size:11px;fill:url(#linearGradient4);stroke:none;font-family:sans-serif"
     transform="translate(-60,-53)" />
  <rect
     x="323"
     y="279"
     clip-path="url(#clipPath3)"
     width="76"
     height="26"
     id="rect16142"
     style="font-size:11px;fill:none;stroke:#424242;font-family:sans-serif"
     transform="translate(-60,-53)" />
  <text
     x="327"
     y="293"
     clip-path="url(#clipPath3)"
     font-weight="bold"
     space="preserve"
     id="text16144"
     style="font-size:11px;font-weight:bold;fill:#000000;stroke:none;font-family:sans-serif"
     transform="translate(-60,-53)">Dictionary</text>
  <rect
     x="479"
     y="206"
     clip-path="url(#clipPath3)"
     width="73"
     height="57"
     id="rect16146"
     style="font-size:11px;fill:#b2b2b2;stroke:none;font-family:sans-serif"
     transform="translate(-60,-53)" />
  <rect
     x="476"
     y="203"
     clip-path="url(#clipPath3)"
     width="73"
     height="57"
     id="rect16148"
     style="font-size:11px;fill:url(#linearGradient5);stroke:none;font-family:sans-serif"
     transform="translate(-60,-53)" />
  <rect
     x="476"
     y="203"
     clip-path="url(#clipPath3)"
     width="73"
     height="57"
     id="rect16150"
     style="font-size:11px;fill:none;stroke:#424242;font-family:sans-serif"
     transform="translate(-60,-53)" />
  <text
     x="480.5"
     y="217"
     clip-path="url(#clipPath3)"
     font-weight="bold"
     space="preserve"
     id="text16152"
     style="font-size:11px;font-weight:bold;fill:#000000;stroke:none;font-family:sans-serif"
     transform="translate(-60,-53)">DocString</text>
  <line
     clip-path="url(#clipPath3)"
     x1="476"
     x2="549"
     y1="225"
     y2="225"
     id="line16154"
     style="font-size:11px;fill:none;stroke:#424242;font-family:sans-serif"
     transform="translate(-60,-53)" />
  <text
     x="479"
     space="preserve"
     y="239"
     clip-path="url(#clipPath3)"
     id="text16156"
     style="font-size:11px;fill:#280000;stroke:none;font-family:sans-serif"
     transform="translate(-60,-53)">text</text>
  <text
     x="479"
     space="preserve"
     y="252"
     clip-path="url(#clipPath3)"
     id="text16158"
     style="font-size:11px;fill:#280000;stroke:none;font-family:sans-serif"
     transform="translate(-60,-53)">markup</text>
  <rect
     x="94"
     y="213"
     clip-path="url(#clipPath3)"
     width="49"
     height="70"
     id="rect16160"
     style="font-size:11px;fill:#b2b2b2;stroke:none;font-family:sans-serif"
     transform="translate(-60,-53)" />
  <rect
     x="91"
     y="210"
     clip-path="url(#clipPath3)"
     width="49"
     height="70"
     id="rect16162"
     style="font-size:11px;fill:url(#linearGradient6);stroke:none;font-family:sans-serif"
     transform="translate(-60,-53)" />
  <rect
     x="91"
     y="210"
     clip-path="url(#clipPath3)"
     width="49"
     height="70"
     id="rect16164"
     style="font-size:11px;fill:none;stroke:#424242;font-family:sans-serif"
     transform="translate(-60,-53)" />
  <text
     x="110"
     y="224"
     clip-path="url(#clipPath3)"
     font-weight="bold"
     space="preserve"
     id="text16166"
     style="font-size:11px;font-weight:bold;fill:#000000;stroke:none;font-family:sans-serif"
     transform="translate(-60,-53)">IR</text>
  <line
     clip-path="url(#clipPath3)"
     x1="91"
     x2="140"
     y1="232"
     y2="232"
     id="line16168"
     style="font-size:11px;fill:none;stroke:#424242;font-family:sans-serif"
     transform="translate(-60,-53)" />
  <text
     x="94"
     space="preserve"
     y="246"
     clip-path="url(#clipPath3)"
     id="text16170"
     style="font-size:11px;fill:#280000;stroke:none;font-family:sans-serif"
     transform="translate(-60,-53)">files</text>
  <text
     x="94"
     space="preserve"
     y="259"
     clip-path="url(#clipPath3)"
     id="text16172"
     style="font-size:11px;fill:#280000;stroke:none;font-family:sans-serif"
     transform="translate(-60,-53)">asg</text>
  <text
     x="94"
     space="preserve"
     y="272"
     clip-path="url(#clipPath3)"
     id="text16174"
     style="font-size:11px;fill:#280000;stroke:none;font-family:sans-serif"
     transform="translate(-60,-53)">sxr</text>
  <rect
     x="479"
     y="276"
     clip-path="url(#clipPath3)"
     width="69"
     height="44"
     id="rect16176"
     style="font-size:11px;fill:#b2b2b2;stroke:none;font-family:sans-serif"
     transform="translate(-60,-53)" />
  <rect
     x="476"
     y="273"
     clip-path="url(#clipPath3)"
     width="69"
     height="44"
     id="rect16178"
     style="font-size:11px;fill:url(#linearGradient7);stroke:none;font-family:sans-serif"
     transform="translate(-60,-53)" />
  <rect
     x="476"
     y="273"
     clip-path="url(#clipPath3)"
     width="69"
     height="44"
     id="rect16180"
     style="font-size:11px;fill:none;stroke:#424242;font-family:sans-serif"
     transform="translate(-60,-53)" />
  <text
     x="489"
     y="287"
     clip-path="url(#clipPath3)"
     font-weight="bold"
     space="preserve"
     id="text16182"
     style="font-size:11px;font-weight:bold;fill:#000000;stroke:none;font-family:sans-serif"
     transform="translate(-60,-53)">TypeId</text>
  <line
     clip-path="url(#clipPath3)"
     x1="476"
     x2="545"
     y1="295"
     y2="295"
     id="line16184"
     style="font-size:11px;fill:none;stroke:#424242;font-family:sans-serif"
     transform="translate(-60,-53)" />
  <text
     x="479"
     space="preserve"
     y="309"
     clip-path="url(#clipPath3)"
     id="text16186"
     style="font-size:11px;fill:#280000;stroke:none;font-family:sans-serif"
     transform="translate(-60,-53)">name</text>
  <rect
     x="322"
     y="133"
     clip-path="url(#clipPath3)"
     width="54"
     height="26"
     id="rect16188"
     style="font-size:11px;fill:#b2b2b2;stroke:none;font-family:sans-serif"
     transform="translate(-60,-53)" />
  <rect
     x="319"
     y="130"
     clip-path="url(#clipPath3)"
     width="54"
     height="26"
     id="rect16190"
     style="font-size:11px;fill:url(#linearGradient8);stroke:none;font-family:sans-serif"
     transform="translate(-60,-53)" />
  <rect
     x="319"
     y="130"
     clip-path="url(#clipPath3)"
     width="54"
     height="26"
     id="rect16192"
     style="font-size:11px;fill:none;stroke:#424242;font-family:sans-serif"
     transform="translate(-60,-53)" />
  <text
     x="323.5"
     y="144"
     clip-path="url(#clipPath3)"
     font-weight="bold"
     space="preserve"
     id="text16194"
     style="font-size:11px;font-weight:bold;fill:#000000;stroke:none;font-family:sans-serif"
     transform="translate(-60,-53)">Include</text>
  <rect
     x="322"
     y="168"
     clip-path="url(#clipPath3)"
     width="48"
     height="26"
     id="rect16196"
     style="font-size:11px;fill:#b2b2b2;stroke:none;font-family:sans-serif"
     transform="translate(-60,-53)" />
  <rect
     x="319"
     y="165"
     clip-path="url(#clipPath3)"
     width="48"
     height="26"
     id="rect16198"
     style="font-size:11px;fill:url(#linearGradient9);stroke:none;font-family:sans-serif"
     transform="translate(-60,-53)" />
  <rect
     x="319"
     y="165"
     clip-path="url(#clipPath3)"
     width="48"
     height="26"
     id="rect16200"
     style="font-size:11px;fill:none;stroke:#424242;font-family:sans-serif"
     transform="translate(-60,-53)" />
  <text
     x="324"
     y="179"
     clip-path="url(#clipPath3)"
     font-weight="bold"
     space="preserve"
     id="text16202"
     style="font-size:11px;font-weight:bold;fill:#000000;stroke:none;font-family:sans-serif"
     transform="translate(-60,-53)">Macro</text>
  <rect
     x="196"
     y="238"
     clip-path="url(#clipPath3)"
     width="39"
     height="26"
     id="rect16204"
     style="font-size:11px;fill:#b2b2b2;stroke:none;font-family:sans-serif"
     transform="translate(-60,-53)" />
  <rect
     x="193"
     y="235"
     clip-path="url(#clipPath3)"
     width="39"
     height="26"
     id="rect16206"
     style="font-size:11px;fill:url(#linearGradient10);stroke:none;font-family:sans-serif"
     transform="translate(-60,-53)" />
  <rect
     x="193"
     y="235"
     clip-path="url(#clipPath3)"
     width="39"
     height="26"
     id="rect16208"
     style="font-size:11px;fill:none;stroke:#424242;font-family:sans-serif"
     transform="translate(-60,-53)" />
  <text
     x="200"
     y="249"
     clip-path="url(#clipPath3)"
     font-weight="bold"
     space="preserve"
     id="text16210"
     style="font-size:11px;font-weight:bold;fill:#000000;stroke:none;font-family:sans-serif"
     transform="translate(-60,-53)">ASG</text>
  <rect
     x="199"
     y="304"
     clip-path="url(#clipPath3)"
     width="39"
     height="26"
     id="rect16212"
     style="font-size:11px;fill:#b2b2b2;stroke:none;font-family:sans-serif"
     transform="translate(-60,-53)" />
  <rect
     x="196"
     y="301"
     clip-path="url(#clipPath3)"
     width="39"
     height="26"
     id="rect16214"
     style="font-size:11px;fill:url(#linearGradient11);stroke:none;font-family:sans-serif"
     transform="translate(-60,-53)" />
  <rect
     x="196"
     y="301"
     clip-path="url(#clipPath3)"
     width="39"
     height="26"
     id="rect16216"
     style="font-size:11px;fill:none;stroke:#424242;font-family:sans-serif"
     transform="translate(-60,-53)" />
  <text
     x="204"
     y="315"
     clip-path="url(#clipPath3)"
     font-weight="bold"
     space="preserve"
     id="text16218"
     style="font-size:11px;font-weight:bold;fill:#000000;stroke:none;font-family:sans-serif"
     transform="translate(-60,-53)">SXR</text>
  <rect
     x="73"
     y="389"
     clip-path="url(#clipPath3)"
     width="280"
     height="104"
     id="rect16220"
     style="font-size:11px;fill:#b2b2b2;stroke:none;font-family:sans-serif"
     transform="translate(-60,-53)" />
  <rect
     x="73"
     y="374"
     clip-path="url(#clipPath3)"
     width="96"
     height="15"
     id="rect16222"
     style="font-size:11px;fill:#b2b2b2;stroke:none;font-family:sans-serif"
     transform="translate(-60,-53)" />
  <polygon
     clip-path="url(#clipPath3)"
     points="166,386 166,371 70,371 70,490 350,490 350,386 70,386 166,386 "
     id="polygon16224"
     style="font-size:11px;fill:url(#linearGradient12);stroke:none;font-family:sans-serif"
     transform="translate(-60,-53)" />
  <polygon
     clip-path="url(#clipPath3)"
     points="166,386 166,371 70,371 70,490 350,490 350,386 70,386 166,386 "
     id="polygon16226"
     style="font-size:11px;fill:none;stroke:#424242;font-family:sans-serif"
     transform="translate(-60,-53)" />
  <g
     style="font-size:13px;font-weight:bold;font-family:sans-serif"
     id="g16228"
     transform="translate(-60,-53)"
     font-weight="bold"
     font-size="13"
     text-rendering="geometricPrecision">
    <text
       style="stroke:none"
       id="text16230"
       clip-path="url(#clipPath3)"
       y="402"
       space="preserve"
       x="102.5">C &amp; C++ Parser (C++ Library)</text>
    <rect
       style="fill:#b2b2b2;stroke:none"
       id="rect16232"
       height="26"
       width="112"
       clip-path="url(#clipPath3)"
       y="451"
       x="234" />
    <rect
       style="fill:url(#linearGradient13);stroke:none"
       id="rect16234"
       height="26"
       width="112"
       clip-path="url(#clipPath3)"
       y="448"
       x="231" />
    <rect
       style="fill:none;stroke:#424242"
       id="rect16236"
       height="26"
       width="112"
       clip-path="url(#clipPath3)"
       y="448"
       x="231" />
    <text
       style="font-size:11px;stroke:none"
       id="text16238"
       clip-path="url(#clipPath3)"
       y="462"
       font-size="11"
       space="preserve"
       x="234.5">TypeRepository</text>
    <rect
       style="fill:#b2b2b2;stroke:none"
       id="rect16240"
       height="26"
       width="92"
       clip-path="url(#clipPath3)"
       y="451"
       x="136" />
    <rect
       style="fill:url(#linearGradient14);stroke:none"
       id="rect16242"
       height="26"
       width="92"
       clip-path="url(#clipPath3)"
       y="448"
       x="133" />
    <rect
       style="fill:none;stroke:#424242"
       id="rect16244"
       height="26"
       width="92"
       clip-path="url(#clipPath3)"
       y="448"
       x="133" />
    <text
       style="font-size:11px;stroke:none"
       id="text16246"
       clip-path="url(#clipPath3)"
       y="462"
       font-size="11"
       space="preserve"
       x="137.5">SymbolTable</text>
    <rect
       style="fill:#b2b2b2;stroke:none"
       id="rect16248"
       height="26"
       width="47"
       clip-path="url(#clipPath3)"
       y="451"
       x="80" />
    <rect
       style="fill:url(#linearGradient15);stroke:none"
       id="rect16250"
       height="26"
       width="47"
       clip-path="url(#clipPath3)"
       y="448"
       x="77" />
    <rect
       style="fill:none;stroke:#424242"
       id="rect16252"
       height="26"
       width="47"
       clip-path="url(#clipPath3)"
       y="448"
       x="77" />
    <text
       style="font-size:11px;stroke:none"
       id="text16254"
       clip-path="url(#clipPath3)"
       y="462"
       font-size="11"
       space="preserve"
       x="81.5">PTree</text>
  </g>
  <g
     style="font-size:11px;font-weight:bold;fill:#424242;stroke:#424242;stroke-linecap:butt;stroke-linejoin:round;font-family:sans-serif"
     id="g16256"
     font-weight="bold"
     text-rendering="geometricPrecision"
     transform="translate(-60,-53)"
     font-size="11">
    <polygon
       style="fill:none"
       id="polygon16258"
       clip-path="url(#clipPath3)"
       points="232,252 237,254 244,252 237,250 232,252 " />
    <polygon
       style="stroke:none"
       id="polygon16260"
       clip-path="url(#clipPath3)"
       points="232,252 237,254 244,252 237,250 232,252 " />
    <polygon
       style="fill:none"
       id="polygon16262"
       clip-path="url(#clipPath3)"
       points="232,252 237,254 244,252 237,250 232,252 " />
    <path
       style="fill:none"
       id="path16264"
       clip-path="url(#clipPath3)"
       d="M 318,288 L 323,291 L 318,294" />
    <path
       style="fill:none"
       id="path16266"
       clip-path="url(#clipPath3)"
       d="M 323,291 L 294,291 L 294,252 L 244,252" />
    <polygon
       style="fill:none"
       id="polygon16268"
       clip-path="url(#clipPath3)"
       points="232,242 237,244 244,242 237,240 232,242 " />
    <polygon
       style="stroke:none"
       id="polygon16270"
       clip-path="url(#clipPath3)"
       points="232,242 237,244 244,242 237,240 232,242 " />
    <polygon
       style="fill:none"
       id="polygon16272"
       clip-path="url(#clipPath3)"
       points="232,242 237,244 244,242 237,240 232,242 " />
    <path
       style="fill:none"
       id="path16274"
       clip-path="url(#clipPath3)"
       d="M 314,218 L 319,221 L 314,224" />
    <path
       style="fill:none"
       id="path16276"
       clip-path="url(#clipPath3)"
       d="M 319,221 L 295,221 L 295,242 L 244,242" />
    <polygon
       style="fill:none"
       id="polygon16278"
       clip-path="url(#clipPath3)"
       points="399,292 404,294 411,292 404,290 399,292 " />
    <polygon
       style="stroke:none"
       id="polygon16280"
       clip-path="url(#clipPath3)"
       points="399,292 404,294 411,292 404,290 399,292 " />
    <polygon
       style="fill:none"
       id="polygon16282"
       clip-path="url(#clipPath3)"
       points="399,292 404,294 411,292 404,290 399,292 " />
    <path
       style="fill:none"
       id="path16284"
       clip-path="url(#clipPath3)"
       d="M 471,289 L 476,292 L 471,295" />
    <path
       style="fill:none"
       id="path16286"
       clip-path="url(#clipPath3)"
       d="M 476,292 L 411,292" />
    <polygon
       style="fill:none"
       id="polygon16288"
       clip-path="url(#clipPath3)"
       points="404,214 409,216 416,214 409,212 404,214 " />
    <polygon
       style="stroke:none"
       id="polygon16290"
       clip-path="url(#clipPath3)"
       points="404,214 409,216 416,214 409,212 404,214 " />
    <polygon
       style="fill:none"
       id="polygon16292"
       clip-path="url(#clipPath3)"
       points="404,214 409,216 416,214 409,212 404,214 " />
    <path
       style="fill:none"
       id="path16294"
       clip-path="url(#clipPath3)"
       d="M 471,211 L 476,214 L 471,217" />
    <path
       style="fill:none"
       id="path16296"
       clip-path="url(#clipPath3)"
       d="M 476,214 L 416,214" />
    <polygon
       style="fill:none"
       id="polygon16298"
       clip-path="url(#clipPath3)"
       points="404,228 409,230 416,228 409,226 404,228 " />
    <polygon
       style="stroke:none"
       id="polygon16300"
       clip-path="url(#clipPath3)"
       points="404,228 409,230 416,228 409,226 404,228 " />
    <polygon
       style="fill:none"
       id="polygon16302"
       clip-path="url(#clipPath3)"
       points="404,228 409,230 416,228 409,226 404,228 " />
    <path
       style="fill:none"
       id="path16304"
       clip-path="url(#clipPath3)"
       d="M 471,284 L 476,287 L 471,290" />
    <path
       style="fill:none"
       id="path16306"
       clip-path="url(#clipPath3)"
       d="M 476,287 L 442,287 L 442,228 L 416,228" />
    <polygon
       style="fill:none"
       id="polygon16308"
       clip-path="url(#clipPath3)"
       points="140,242 145,244 152,242 145,240 140,242 " />
    <polygon
       style="stroke:none"
       id="polygon16310"
       clip-path="url(#clipPath3)"
       points="140,242 145,244 152,242 145,240 140,242 " />
    <polygon
       style="fill:none"
       id="polygon16312"
       clip-path="url(#clipPath3)"
       points="140,242 145,244 152,242 145,240 140,242 " />
    <path
       style="fill:none"
       id="path16314"
       clip-path="url(#clipPath3)"
       d="M 188,176 L 193,179 L 188,182" />
    <path
       style="fill:none"
       id="path16316"
       clip-path="url(#clipPath3)"
       d="M 193,179 L 172,179 L 172,242 L 152,242" />
    <polygon
       style="fill:none"
       id="polygon16318"
       clip-path="url(#clipPath3)"
       points="140,263 145,265 152,263 145,261 140,263 " />
    <polygon
       style="stroke:none"
       id="polygon16320"
       clip-path="url(#clipPath3)"
       points="140,263 145,265 152,263 145,261 140,263 " />
    <polygon
       style="fill:none"
       id="polygon16322"
       clip-path="url(#clipPath3)"
       points="140,263 145,265 152,263 145,261 140,263 " />
    <path
       style="fill:none"
       id="path16324"
       clip-path="url(#clipPath3)"
       d="M 191,309 L 196,312 L 191,315" />
    <path
       style="fill:none"
       id="path16326"
       clip-path="url(#clipPath3)"
       d="M 196,312 L 172,312 L 172,263 L 152,263" />
    <polygon
       style="fill:none"
       id="polygon16328"
       clip-path="url(#clipPath3)"
       points="140,252 145,254 152,252 145,250 140,252 " />
    <polygon
       style="stroke:none"
       id="polygon16330"
       clip-path="url(#clipPath3)"
       points="140,252 145,254 152,252 145,250 140,252 " />
    <polygon
       style="fill:none"
       id="polygon16332"
       clip-path="url(#clipPath3)"
       points="140,252 145,254 152,252 145,250 140,252 " />
    <path
       style="fill:none"
       id="path16334"
       clip-path="url(#clipPath3)"
       d="M 188,249 L 193,252 L 188,255" />
    <path
       style="fill:none"
       id="path16336"
       clip-path="url(#clipPath3)"
       d="M 193,252 L 152,252" />
    <polygon
       style="fill:none"
       id="polygon16338"
       clip-path="url(#clipPath3)"
       points="269,186 274,188 281,186 274,184 269,186 " />
    <polygon
       style="stroke:none"
       id="polygon16340"
       clip-path="url(#clipPath3)"
       points="269,186 274,188 281,186 274,184 269,186 " />
    <polygon
       style="fill:none"
       id="polygon16342"
       clip-path="url(#clipPath3)"
       points="269,186 274,188 281,186 274,184 269,186 " />
    <path
       style="fill:none"
       id="path16344"
       clip-path="url(#clipPath3)"
       d="M 314,208 L 319,211 L 314,214" />
    <path
       style="fill:none"
       id="path16346"
       clip-path="url(#clipPath3)"
       d="M 319,211 L 295,211 L 295,186 L 281,186" />
    <polygon
       style="fill:none"
       id="polygon16348"
       clip-path="url(#clipPath3)"
       points="269,165 274,167 281,165 274,163 269,165 " />
    <polygon
       style="stroke:none"
       id="polygon16350"
       clip-path="url(#clipPath3)"
       points="269,165 274,167 281,165 274,163 269,165 " />
    <polygon
       style="fill:none"
       id="polygon16352"
       clip-path="url(#clipPath3)"
       points="269,165 274,167 281,165 274,163 269,165 " />
    <path
       style="fill:none"
       id="path16354"
       clip-path="url(#clipPath3)"
       d="M 319,141 L 295,141 L 295,165 L 281,165" />
    <polygon
       style="fill:none"
       id="polygon16356"
       clip-path="url(#clipPath3)"
       points="269,176 274,178 281,176 274,174 269,176 " />
    <polygon
       style="stroke:none"
       id="polygon16358"
       clip-path="url(#clipPath3)"
       points="269,176 274,178 281,176 274,174 269,176 " />
    <polygon
       style="fill:none"
       id="polygon16360"
       clip-path="url(#clipPath3)"
       points="269,176 274,178 281,176 274,174 269,176 " />
    <path
       style="fill:none"
       id="path16362"
       clip-path="url(#clipPath3)"
       d="M 314,173 L 319,176 L 314,179" />
    <path
       style="fill:none"
       id="path16364"
       clip-path="url(#clipPath3)"
       d="M 319,176 L 281,176" />
  </g>
</svg>
