<?xml version="1.0" encoding="iso-8859-1"?>
<!DOCTYPE svg PUBLIC "-//W3C//DTD SVG 20000802//EN"
"http://www.w3.org/TR/2000/CR-SVG-20000802/DTD/svg-20000802.dtd">
<svg width="7.59375in" height="3.4895833333333335in" viewBox="40 35 729 335">
	<path d="M109,111
		a19,11 0 0,1 19,-11
		l 68,0
 
		a19,11 0 0,1 19,11
		l 0,0
 
		a19,11 0 0,1 -19,11
		l -68,0
 
		a19,11 0 0,1 -19,-11
		l 0,-0"
		style="fill:#ffffcc; stroke:#424242; stroke-width:1; stroke-dasharray:0 "/>
	<text x="143" y="116" 
		style="font-family:Verdana; font-weight:bold; font-size:10; fill:#000000">parser</text>
	<path d="M590,211
		a19,11 0 0,1 19,-11
		l 68,0
 
		a19,11 0 0,1 19,11
		l 0,0
 
		a19,11 0 0,1 -19,11
		l -68,0
 
		a19,11 0 0,1 -19,-11
		l 0,-0"
		style="fill:#ffffcc; stroke:#424242; stroke-width:1; stroke-dasharray:0 "/>
	<text x="613" y="216" 
		style="font-family:Verdana; font-weight:bold; font-size:10; fill:#000000">formatter</text>
	<path d="M420,211
		a19,11 0 0,1 19,-11
		l 68,0
 
		a19,11 0 0,1 19,11
		l 0,0
 
		a19,11 0 0,1 -19,11
		l -68,0
 
		a19,11 0 0,1 -19,-11
		l 0,-0"
		style="fill:#ffffcc; stroke:#424242; stroke-width:1; stroke-dasharray:0 "/>
	<text x="455" y="216" 
		style="font-family:Verdana; font-weight:bold; font-size:10; fill:#000000">linker</text>
	<path d="M110,284
		a19,11 0 0,1 19,-11
		l 68,0
 
		a19,11 0 0,1 19,11
		l 0,0
 
		a19,11 0 0,1 -19,11
		l -68,0
 
		a19,11 0 0,1 -19,-11
		l 0,-0"
		style="fill:#ffffcc; stroke:#424242; stroke-width:1; stroke-dasharray:0 "/>
	<text x="144" y="289" 
		style="font-family:Verdana; font-weight:bold; font-size:10; fill:#000000">parser</text>
	<rect x="90" y="50" width="90" height="23" 
		style="fill:#ffffcc; stroke:#424242; stroke-width:1; stroke-dasharray:0 "/>
	<text x="96" y="63" 
		style="font-family:Verdana; font-weight:bold; text-decoration:underline; font-size:10; fill:#000000">source file 1</text>
	<rect x="90" y="223" width="90" height="23" 
		style="fill:#ffffcc; stroke:#424242; stroke-width:1; stroke-dasharray:0 "/>
	<text x="96" y="236" 
		style="font-family:Verdana; font-weight:bold; text-decoration:underline; font-size:10; fill:#000000">source file 2</text>
	<rect x="190" y="150" width="67" height="23" 
		style="fill:#ffffcc; stroke:#424242; stroke-width:1; stroke-dasharray:0 "/>
	<text x="196" y="163" 
		style="font-family:Verdana; font-weight:bold; text-decoration:underline; font-size:10; fill:#000000">output 1</text>
	<rect x="191" y="323" width="67" height="23" 
		style="fill:#ffffcc; stroke:#424242; stroke-width:1; stroke-dasharray:0 "/>
	<text x="197" y="336" 
		style="font-family:Verdana; font-weight:bold; text-decoration:underline; font-size:10; fill:#000000">output 2</text>
	<rect x="500" y="250" width="63" height="23" 
		style="fill:#ffffcc; stroke:#424242; stroke-width:1; stroke-dasharray:0 "/>
	<text x="522" y="263" 
		style="font-family:Verdana; font-weight:bold; text-decoration:underline; font-size:10; fill:#000000">toc</text>
	<rect x="670" y="250" width="63" height="23" 
		style="fill:#ffffcc; stroke:#424242; stroke-width:1; stroke-dasharray:0 "/>
	<text x="687" y="263" 
		style="font-family:Verdana; font-weight:bold; text-decoration:underline; font-size:10; fill:#000000">html</text>
	<ellipse
		cx="59" cy="110"
		rx="9" ry="9"
		style="fill:#424242; stroke:#424242; stroke-width:1; stroke-dasharray:0 "/>
	<ellipse
		cx="749" cy="209"
		rx="9" ry="9"
		style="fill:none; stroke:#424242; stroke-width:1; stroke-dasharray:0 "/>
	<ellipse
		cx="749" cy="209"
		rx="4" ry="4"
		style="fill:#424242; stroke:#424242; stroke-width:1; stroke-dasharray:0 "/>
	<ellipse
		cx="269" cy="109"
		rx="9" ry="9"
		style="fill:none; stroke:#424242; stroke-width:1; stroke-dasharray:0 "/>
	<ellipse
		cx="269" cy="109"
		rx="4" ry="4"
		style="fill:#424242; stroke:#424242; stroke-width:1; stroke-dasharray:0 "/>
	<ellipse
		cx="270" cy="282"
		rx="9" ry="9"
		style="fill:none; stroke:#424242; stroke-width:1; stroke-dasharray:0 "/>
	<ellipse
		cx="270" cy="282"
		rx="4" ry="4"
		style="fill:#424242; stroke:#424242; stroke-width:1; stroke-dasharray:0 "/>
	<line x1="435" y1="200" x2="435" y2="175" 
		style="fill:none; stroke:#424242; stroke-width:1; stroke-dasharray:10 "/>
	<line x1="435" y1="175" x2="305" y2="175" 
		style="fill:none; stroke:#424242; stroke-width:1; stroke-dasharray:10 "/>
	<line x1="305" y1="175" x2="305" y2="215" 
		style="fill:none; stroke:#424242; stroke-width:1; stroke-dasharray:10 "/>
	<line x1="305" y1="215" x2="245" y2="215" 
		style="fill:none; stroke:#424242; stroke-width:1; stroke-dasharray:10 "/>
	<line x1="245" y1="215" x2="245" y2="173" 
		style="fill:none; stroke:#424242; stroke-width:1; stroke-dasharray:10 "/>
	<line x1="435" y1="200" x2="438" y2="193" 
		style="fill:none; stroke:#424242; stroke-width:1; stroke-dasharray:0 "/>
	<line x1="435" y1="200" x2="432" y2="193" 
		style="fill:none; stroke:#424242; stroke-width:1; stroke-dasharray:0 "/>
	<line x1="435" y1="200" x2="435" y2="175" 
		style="fill:none; stroke:#424242; stroke-width:1; stroke-dasharray:10 "/>
	<line x1="435" y1="175" x2="305" y2="175" 
		style="fill:none; stroke:#424242; stroke-width:1; stroke-dasharray:10 "/>
	<line x1="305" y1="175" x2="305" y2="365" 
		style="fill:none; stroke:#424242; stroke-width:1; stroke-dasharray:10 "/>
	<line x1="305" y1="365" x2="245" y2="365" 
		style="fill:none; stroke:#424242; stroke-width:1; stroke-dasharray:10 "/>
	<line x1="245" y1="365" x2="245" y2="346" 
		style="fill:none; stroke:#424242; stroke-width:1; stroke-dasharray:10 "/>
	<line x1="435" y1="200" x2="438" y2="193" 
		style="fill:none; stroke:#424242; stroke-width:1; stroke-dasharray:0 "/>
	<line x1="435" y1="200" x2="432" y2="193" 
		style="fill:none; stroke:#424242; stroke-width:1; stroke-dasharray:0 "/>
	<line x1="610" y1="200" x2="610" y2="175" 
		style="fill:none; stroke:#424242; stroke-width:1; stroke-dasharray:10 "/>
	<line x1="610" y1="175" x2="575" y2="175" 
		style="fill:none; stroke:#424242; stroke-width:1; stroke-dasharray:10 "/>
	<line x1="575" y1="175" x2="575" y2="285" 
		style="fill:none; stroke:#424242; stroke-width:1; stroke-dasharray:10 "/>
	<line x1="575" y1="285" x2="550" y2="285" 
		style="fill:none; stroke:#424242; stroke-width:1; stroke-dasharray:10 "/>
	<line x1="550" y1="285" x2="550" y2="273" 
		style="fill:none; stroke:#424242; stroke-width:1; stroke-dasharray:10 "/>
	<line x1="610" y1="200" x2="613" y2="193" 
		style="fill:none; stroke:#424242; stroke-width:1; stroke-dasharray:0 "/>
	<line x1="610" y1="200" x2="607" y2="193" 
		style="fill:none; stroke:#424242; stroke-width:1; stroke-dasharray:0 "/>
	<line x1="590" y1="211" x2="526" y2="211" 
		style="fill:none; stroke:#424242; stroke-width:1; stroke-dasharray:0 "/>
	<line x1="590" y1="211" x2="583" y2="208" 
		style="fill:none; stroke:#424242; stroke-width:1; stroke-dasharray:0 "/>
	<line x1="590" y1="211" x2="583" y2="214" 
		style="fill:none; stroke:#424242; stroke-width:1; stroke-dasharray:0 "/>
	<line x1="261" y1="282" x2="216" y2="282" 
		style="fill:none; stroke:#424242; stroke-width:1; stroke-dasharray:0 "/>
	<line x1="261" y1="282" x2="254" y2="279" 
		style="fill:none; stroke:#424242; stroke-width:1; stroke-dasharray:0 "/>
	<line x1="261" y1="282" x2="254" y2="285" 
		style="fill:none; stroke:#424242; stroke-width:1; stroke-dasharray:0 "/>
	<line x1="260" y1="109" x2="215" y2="109" 
		style="fill:none; stroke:#424242; stroke-width:1; stroke-dasharray:0 "/>
	<line x1="260" y1="109" x2="253" y2="106" 
		style="fill:none; stroke:#424242; stroke-width:1; stroke-dasharray:0 "/>
	<line x1="260" y1="109" x2="253" y2="112" 
		style="fill:none; stroke:#424242; stroke-width:1; stroke-dasharray:0 "/>
	<line x1="740" y1="209" x2="696" y2="209" 
		style="fill:none; stroke:#424242; stroke-width:1; stroke-dasharray:0 "/>
	<line x1="740" y1="209" x2="733" y2="206" 
		style="fill:none; stroke:#424242; stroke-width:1; stroke-dasharray:0 "/>
	<line x1="740" y1="209" x2="733" y2="212" 
		style="fill:none; stroke:#424242; stroke-width:1; stroke-dasharray:0 "/>
	<line x1="109" y1="110" x2="68" y2="110" 
		style="fill:none; stroke:#424242; stroke-width:1; stroke-dasharray:0 "/>
	<line x1="109" y1="110" x2="102" y2="107" 
		style="fill:none; stroke:#424242; stroke-width:1; stroke-dasharray:0 "/>
	<line x1="109" y1="110" x2="102" y2="113" 
		style="fill:none; stroke:#424242; stroke-width:1; stroke-dasharray:0 "/>
	<line x1="201" y1="323" x2="201" y2="296" 
		style="fill:none; stroke:#424242; stroke-width:1; stroke-dasharray:10 "/>
	<line x1="201" y1="323" x2="204" y2="316" 
		style="fill:none; stroke:#424242; stroke-width:1; stroke-dasharray:0 "/>
	<line x1="201" y1="323" x2="198" y2="316" 
		style="fill:none; stroke:#424242; stroke-width:1; stroke-dasharray:0 "/>
	<line x1="510" y1="250" x2="510" y2="223" 
		style="fill:none; stroke:#424242; stroke-width:1; stroke-dasharray:10 "/>
	<line x1="510" y1="250" x2="513" y2="243" 
		style="fill:none; stroke:#424242; stroke-width:1; stroke-dasharray:0 "/>
	<line x1="510" y1="250" x2="507" y2="243" 
		style="fill:none; stroke:#424242; stroke-width:1; stroke-dasharray:0 "/>
	<line x1="200" y1="150" x2="200" y2="123" 
		style="fill:none; stroke:#424242; stroke-width:1; stroke-dasharray:10 "/>
	<line x1="200" y1="150" x2="203" y2="143" 
		style="fill:none; stroke:#424242; stroke-width:1; stroke-dasharray:0 "/>
	<line x1="200" y1="150" x2="197" y2="143" 
		style="fill:none; stroke:#424242; stroke-width:1; stroke-dasharray:0 "/>
	<line x1="120" y1="273" x2="120" y2="246" 
		style="fill:none; stroke:#424242; stroke-width:1; stroke-dasharray:10 "/>
	<line x1="120" y1="273" x2="123" y2="266" 
		style="fill:none; stroke:#424242; stroke-width:1; stroke-dasharray:0 "/>
	<line x1="120" y1="273" x2="117" y2="266" 
		style="fill:none; stroke:#424242; stroke-width:1; stroke-dasharray:0 "/>
	<line x1="120" y1="100" x2="120" y2="73" 
		style="fill:none; stroke:#424242; stroke-width:1; stroke-dasharray:10 "/>
	<line x1="120" y1="100" x2="123" y2="93" 
		style="fill:none; stroke:#424242; stroke-width:1; stroke-dasharray:0 "/>
	<line x1="120" y1="100" x2="117" y2="93" 
		style="fill:none; stroke:#424242; stroke-width:1; stroke-dasharray:0 "/>
	<line x1="680" y1="250" x2="680" y2="223" 
		style="fill:none; stroke:#424242; stroke-width:1; stroke-dasharray:10 "/>
	<line x1="680" y1="250" x2="683" y2="243" 
		style="fill:none; stroke:#424242; stroke-width:1; stroke-dasharray:0 "/>
	<line x1="680" y1="250" x2="677" y2="243" 
		style="fill:none; stroke:#424242; stroke-width:1; stroke-dasharray:0 "/>
</svg>