<?xml version="1.0" encoding="iso-8859-1"?>
<!DOCTYPE svg PUBLIC "-//W3C//DTD SVG 20000802//EN"
"http://www.w3.org/TR/2000/CR-SVG-20000802/DTD/svg-20000802.dtd">
<svg width="2.5833333333333335in" height="1.4895833333333333in" viewBox="271 165 248 143">
	<path d="M340,241
		a19,11 0 0,1 19,-11
		l 68,0
 
		a19,11 0 0,1 19,11
		l 0,0
 
		a19,11 0 0,1 -19,11
		l -68,0
 
		a19,11 0 0,1 -19,-11
		l 0,-0"
		style="fill:#ffffcc; stroke:#424242; stroke-width:1; stroke-dasharray:0 "/>
	<text x="363" y="246" 
		style="font-family:Verdana; font-weight:bold; font-size:10; fill:#000000">processor</text>
	<rect x="420" y="280" width="55" height="23" 
		style="fill:#ffffcc; stroke:#424242; stroke-width:1; stroke-dasharray:0 "/>
	<text x="426" y="293" 
		style="font-family:Verdana; font-weight:bold; text-decoration:underline; font-size:10; fill:#000000">output</text>
	<rect x="320" y="180" width="46" height="23" 
		style="fill:#ffffcc; stroke:#424242; stroke-width:1; stroke-dasharray:0 "/>
	<text x="326" y="193" 
		style="font-family:Verdana; font-weight:bold; text-decoration:underline; font-size:10; fill:#000000">input</text>
	<ellipse
		cx="290" cy="240"
		rx="9" ry="9"
		style="fill:#424242; stroke:#424242; stroke-width:1; stroke-dasharray:0 "/>
	<ellipse
		cx="499" cy="239"
		rx="9" ry="9"
		style="fill:none; stroke:#424242; stroke-width:1; stroke-dasharray:0 "/>
	<ellipse
		cx="499" cy="239"
		rx="4" ry="4"
		style="fill:#424242; stroke:#424242; stroke-width:1; stroke-dasharray:0 "/>
	<line x1="490" y1="239" x2="446" y2="239" 
		style="fill:none; stroke:#424242; stroke-width:1; stroke-dasharray:0 "/>
	<line x1="490" y1="239" x2="483" y2="236" 
		style="fill:none; stroke:#424242; stroke-width:1; stroke-dasharray:0 "/>
	<line x1="490" y1="239" x2="483" y2="242" 
		style="fill:none; stroke:#424242; stroke-width:1; stroke-dasharray:0 "/>
	<line x1="340" y1="240" x2="299" y2="240" 
		style="fill:none; stroke:#424242; stroke-width:1; stroke-dasharray:0 "/>
	<line x1="340" y1="240" x2="333" y2="237" 
		style="fill:none; stroke:#424242; stroke-width:1; stroke-dasharray:0 "/>
	<line x1="340" y1="240" x2="333" y2="243" 
		style="fill:none; stroke:#424242; stroke-width:1; stroke-dasharray:0 "/>
	<line x1="430" y1="280" x2="430" y2="253" 
		style="fill:none; stroke:#424242; stroke-width:1; stroke-dasharray:10 "/>
	<line x1="430" y1="280" x2="433" y2="273" 
		style="fill:none; stroke:#424242; stroke-width:1; stroke-dasharray:0 "/>
	<line x1="430" y1="280" x2="427" y2="273" 
		style="fill:none; stroke:#424242; stroke-width:1; stroke-dasharray:0 "/>
	<line x1="350" y1="230" x2="350" y2="203" 
		style="fill:none; stroke:#424242; stroke-width:1; stroke-dasharray:10 "/>
	<line x1="350" y1="230" x2="353" y2="223" 
		style="fill:none; stroke:#424242; stroke-width:1; stroke-dasharray:0 "/>
	<line x1="350" y1="230" x2="347" y2="223" 
		style="fill:none; stroke:#424242; stroke-width:1; stroke-dasharray:0 "/>
</svg>