<?xml version="1.0" encoding="iso-8859-1"?>
<!DOCTYPE svg PUBLIC "-//W3C//DTD SVG 20000802//EN"
"http://www.w3.org/TR/2000/CR-SVG-20000802/DTD/svg-20000802.dtd">
<svg width="6.802083333333333in" height="1.15625in" viewBox="90 105 653 111">
	<path d="M520,199
		a19,11 0 0,1 19,-11
		l 67,0
 
		a19,11 0 0,1 19,11
		l 0,0
 
		a19,11 0 0,1 -19,11
		l -67,0
 
		a19,11 0 0,1 -19,-11
		l 0,-0"
		style="fill:#ffffcc; stroke:#424242; stroke-width:1; stroke-dasharray:0 "/>
	<text x="542" y="204" 
		style="font-family:Verdana; font-weight:bold; font-size:10; fill:#000000">Formatter</text>
	<path d="M160,199
		a19,11 0 0,1 19,-11
		l 44,0
 
		a19,11 0 0,1 19,11
		l 0,0
 
		a19,11 0 0,1 -19,11
		l -44,0
 
		a19,11 0 0,1 -19,-11
		l 0,-0"
		style="fill:#ffffcc; stroke:#424242; stroke-width:1; stroke-dasharray:0 "/>
	<text x="182" y="204" 
		style="font-family:Verdana; font-weight:bold; font-size:10; fill:#000000">Parser</text>
	<rect x="100" y="140" width="53" height="23" 
		style="fill:#ffffcc; stroke:#424242; stroke-width:1; stroke-dasharray:0 "/>
	<text x="106" y="153" 
		style="font-family:Verdana; font-weight:bold; text-decoration:underline; font-size:10; fill:#000000">source</text>
	<rect x="680" y="120" width="53" height="23" 
		style="fill:#ffffcc; stroke:#424242; stroke-width:1; stroke-dasharray:0 "/>
	<text x="686" y="133" 
		style="font-family:Verdana; font-weight:bold; text-decoration:underline; font-size:10; fill:#000000">source</text>
	<rect x="250" y="150" width="53" height="23" 
		style="fill:#ffffcc; stroke:#424242; stroke-width:1; stroke-dasharray:0 "/>
	<text x="256" y="163" 
		style="font-family:Verdana; font-weight:bold; text-decoration:underline; font-size:10; fill:#000000">syntax</text>
	<rect x="250" y="120" width="39" height="23" 
		style="fill:#ffffcc; stroke:#424242; stroke-width:1; stroke-dasharray:0 "/>
	<text x="257" y="133" 
		style="font-family:Verdana; font-weight:bold; text-decoration:underline; font-size:10; fill:#000000">xref</text>
	<rect x="680" y="150" width="39" height="23" 
		style="fill:#ffffcc; stroke:#424242; stroke-width:1; stroke-dasharray:0 "/>
	<text x="687" y="163" 
		style="font-family:Verdana; font-weight:bold; text-decoration:underline; font-size:10; fill:#000000">xref</text>
	<ellipse
		cx="129" cy="199"
		rx="9" ry="9"
		style="fill:#424242; stroke:#424242; stroke-width:1; stroke-dasharray:0 "/>
	<ellipse
		cx="649" cy="199"
		rx="9" ry="9"
		style="fill:none; stroke:#424242; stroke-width:1; stroke-dasharray:0 "/>
	<ellipse
		cx="649" cy="199"
		rx="4" ry="4"
		style="fill:#424242; stroke:#424242; stroke-width:1; stroke-dasharray:0 "/>
	<line x1="520" y1="200" x2="242" y2="200" 
		style="fill:none; stroke:#424242; stroke-width:1; stroke-dasharray:0 "/>
	<line x1="520" y1="200" x2="513" y2="197" 
		style="fill:none; stroke:#424242; stroke-width:1; stroke-dasharray:0 "/>
	<line x1="520" y1="200" x2="513" y2="203" 
		style="fill:none; stroke:#424242; stroke-width:1; stroke-dasharray:0 "/>
	<line x1="530" y1="188" x2="530" y2="130" 
		style="fill:none; stroke:#424242; stroke-width:1; stroke-dasharray:10 "/>
	<line x1="530" y1="130" x2="289" y2="130" 
		style="fill:none; stroke:#424242; stroke-width:1; stroke-dasharray:10 "/>
	<line x1="530" y1="188" x2="533" y2="181" 
		style="fill:none; stroke:#424242; stroke-width:1; stroke-dasharray:0 "/>
	<line x1="530" y1="188" x2="527" y2="181" 
		style="fill:none; stroke:#424242; stroke-width:1; stroke-dasharray:0 "/>
	<line x1="530" y1="188" x2="530" y2="160" 
		style="fill:none; stroke:#424242; stroke-width:1; stroke-dasharray:10 "/>
	<line x1="530" y1="160" x2="303" y2="160" 
		style="fill:none; stroke:#424242; stroke-width:1; stroke-dasharray:10 "/>
	<line x1="530" y1="188" x2="533" y2="181" 
		style="fill:none; stroke:#424242; stroke-width:1; stroke-dasharray:0 "/>
	<line x1="530" y1="188" x2="527" y2="181" 
		style="fill:none; stroke:#424242; stroke-width:1; stroke-dasharray:0 "/>
	<line x1="680" y1="165" x2="615" y2="165" 
		style="fill:none; stroke:#424242; stroke-width:1; stroke-dasharray:10 "/>
	<line x1="615" y1="165" x2="615" y2="188" 
		style="fill:none; stroke:#424242; stroke-width:1; stroke-dasharray:10 "/>
	<line x1="680" y1="165" x2="673" y2="162" 
		style="fill:none; stroke:#424242; stroke-width:1; stroke-dasharray:0 "/>
	<line x1="680" y1="165" x2="673" y2="168" 
		style="fill:none; stroke:#424242; stroke-width:1; stroke-dasharray:0 "/>
	<line x1="680" y1="130" x2="615" y2="130" 
		style="fill:none; stroke:#424242; stroke-width:1; stroke-dasharray:10 "/>
	<line x1="615" y1="130" x2="615" y2="188" 
		style="fill:none; stroke:#424242; stroke-width:1; stroke-dasharray:10 "/>
	<line x1="680" y1="130" x2="673" y2="127" 
		style="fill:none; stroke:#424242; stroke-width:1; stroke-dasharray:0 "/>
	<line x1="680" y1="130" x2="673" y2="133" 
		style="fill:none; stroke:#424242; stroke-width:1; stroke-dasharray:0 "/>
	<line x1="250" y1="130" x2="235" y2="130" 
		style="fill:none; stroke:#424242; stroke-width:1; stroke-dasharray:10 "/>
	<line x1="235" y1="130" x2="235" y2="188" 
		style="fill:none; stroke:#424242; stroke-width:1; stroke-dasharray:10 "/>
	<line x1="250" y1="130" x2="243" y2="127" 
		style="fill:none; stroke:#424242; stroke-width:1; stroke-dasharray:0 "/>
	<line x1="250" y1="130" x2="243" y2="133" 
		style="fill:none; stroke:#424242; stroke-width:1; stroke-dasharray:0 "/>
	<line x1="175" y1="188" x2="175" y2="150" 
		style="fill:none; stroke:#424242; stroke-width:1; stroke-dasharray:10 "/>
	<line x1="175" y1="150" x2="153" y2="150" 
		style="fill:none; stroke:#424242; stroke-width:1; stroke-dasharray:10 "/>
	<line x1="175" y1="188" x2="178" y2="181" 
		style="fill:none; stroke:#424242; stroke-width:1; stroke-dasharray:0 "/>
	<line x1="175" y1="188" x2="172" y2="181" 
		style="fill:none; stroke:#424242; stroke-width:1; stroke-dasharray:0 "/>
	<line x1="250" y1="165" x2="235" y2="165" 
		style="fill:none; stroke:#424242; stroke-width:1; stroke-dasharray:10 "/>
	<line x1="235" y1="165" x2="235" y2="188" 
		style="fill:none; stroke:#424242; stroke-width:1; stroke-dasharray:10 "/>
	<line x1="250" y1="165" x2="243" y2="162" 
		style="fill:none; stroke:#424242; stroke-width:1; stroke-dasharray:0 "/>
	<line x1="250" y1="165" x2="243" y2="168" 
		style="fill:none; stroke:#424242; stroke-width:1; stroke-dasharray:0 "/>
	<line x1="160" y1="200" x2="138" y2="200" 
		style="fill:none; stroke:#424242; stroke-width:1; stroke-dasharray:0 "/>
	<line x1="160" y1="200" x2="153" y2="197" 
		style="fill:none; stroke:#424242; stroke-width:1; stroke-dasharray:0 "/>
	<line x1="160" y1="200" x2="153" y2="203" 
		style="fill:none; stroke:#424242; stroke-width:1; stroke-dasharray:0 "/>
	<line x1="640" y1="200" x2="625" y2="200" 
		style="fill:none; stroke:#424242; stroke-width:1; stroke-dasharray:0 "/>
	<line x1="640" y1="200" x2="633" y2="197" 
		style="fill:none; stroke:#424242; stroke-width:1; stroke-dasharray:0 "/>
	<line x1="640" y1="200" x2="633" y2="203" 
		style="fill:none; stroke:#424242; stroke-width:1; stroke-dasharray:0 "/>
</svg>