<?xml version="1.0" encoding="UTF-8" standalone="no"?>
<!-- Created with Inkscape (http://www.inkscape.org/) -->
<svg
   xmlns:dc="http://purl.org/dc/elements/1.1/"
   xmlns:cc="http://web.resource.org/cc/"
   xmlns:rdf="http://www.w3.org/1999/02/22-rdf-syntax-ns#"
   xmlns:svg="http://www.w3.org/2000/svg"
   xmlns="http://www.w3.org/2000/svg"
   xmlns:sodipodi="http://sodipodi.sourceforge.net/DTD/sodipodi-0.dtd"
   xmlns:inkscape="http://www.inkscape.org/namespaces/inkscape"
   width="54.06797"
   height="51.568195"
   id="svg2"
   sodipodi:version="0.32"
   inkscape:version="0.45.1"
   sodipodi:docbase="/home/stefan/projects/Synopsis_0_8/share/synopsis"
   sodipodi:docname="logo.svg"
   inkscape:output_extension="org.inkscape.output.svg.inkscape"
   version="1.0"
   inkscape:export-filename="/home/stefan/projects/Synopsis_0_8/share/logo.png"
   inkscape:export-xdpi="200"
   inkscape:export-ydpi="200">
  <sodipodi:namedview
     id="base"
     pagecolor="#ffffff"
     bordercolor="#666666"
     borderopacity="1.0"
     gridtolerance="10000"
     guidetolerance="10"
     objecttolerance="10"
     inkscape:pageopacity="0.0"
     inkscape:pageshadow="2"
     inkscape:zoom="3.6650496"
     inkscape:cx="27.033983"
     inkscape:cy="2246.1714"
     inkscape:document-units="px"
     inkscape:current-layer="svg2"
     inkscape:window-width="872"
     inkscape:window-height="625"
     inkscape:window-x="132"
     inkscape:window-y="553" />
  <defs
     id="defs4" />
  <metadata
     id="metadata7">
    <rdf:RDF>
      <cc:Work
         rdf:about="">
        <dc:format>image/svg+xml</dc:format>
        <dc:type
           rdf:resource="http://purl.org/dc/dcmitype/StillImage" />
      </cc:Work>
    </rdf:RDF>
  </metadata>
  <g
     inkscape:label="Layer 1"
     transform="translate(-191.69667,-364.54623)"
     id="layer1"
     inkscape:groupmode="layer">
    <g
       id="g2215"
       transform="translate(-6.5483425,-2231.8934)">
      <path
         style="fill:#910606;fill-opacity:1;fill-rule:evenodd;stroke:none;stroke-width:13.54873753;stroke-linejoin:miter;stroke-miterlimit:4;stroke-dasharray:none;stroke-opacity:1"
         d="M 218.74587,363.95455 L 202.65168,364.09295 L 201.58612,364.09987 L 201.24708,365.11706 L 196.14067,380.37494 L 196.14067,380.38878 L 196.13375,380.40262 L 191.29027,395.74354 L 190.96507,396.76765 L 191.82997,397.40426 L 204.76206,406.96725 L 204.7759,406.98109 L 204.78281,406.98801 L 217.88096,416.33649 L 218.75279,416.95926 L 219.62461,416.33649 L 232.72276,406.98801 L 232.72968,406.98109 L 232.74352,406.97417 L 245.68252,397.40426 L 246.54051,396.76765 L 246.2153,395.75046 L 241.37182,380.40262 L 241.37182,380.38878 L 241.36491,380.38186 L 236.27234,365.11706 L 235.92637,364.09987 L 234.86081,364.09295 L 218.76662,363.95455 L 218.75971,363.95455 L 218.74587,363.95455 z M 218.76662,366.95769 L 233.76065,367.08917 L 238.52109,381.32986 L 243.03936,395.63283 L 230.95835,404.55921 L 218.75279,413.27108 L 206.52647,404.54537 L 194.47313,395.62591 L 198.99832,381.30218 L 203.75185,367.08225 L 218.76662,366.95769 z "
         id="path2268" />
      <path
         style="fill:#8b0000;fill-opacity:1;stroke-width:2;stroke-miterlimit:4;stroke-dasharray:none"
         id="path2247"
         d="M 215.32785,402.18903 C 213.08877,401.76059 211.25704,400.91062 209.44444,399.45896 C 206.78001,397.32512 204.82702,394.33792 203.94854,391.0527 C 203.61574,389.80818 203.5751,389.38936 203.57558,387.20955 C 203.5762,384.39211 203.7929,383.31402 204.76904,381.27203 C 205.51175,379.71831 206.04714,378.94791 207.28257,377.65518 C 209.11022,375.74275 210.87532,374.83419 213.91158,374.24299 C 215.03917,374.02344 216.37504,373.98357 224.23683,373.93482 L 233.26693,373.87884 L 233.26693,376.04547 L 233.26693,378.21209 L 227.50797,378.2497 L 221.749,378.28731 L 222.90511,379.0519 C 226.15546,381.20151 228.93349,384.76862 229.84263,387.95996 C 230.26575,389.44525 230.29725,392.34611 229.90557,393.75732 C 228.85706,397.53515 225.55447,400.63828 221.25078,401.88941 C 219.63921,402.35792 216.92741,402.49509 215.32785,402.18903 z M 219.60573,400.14849 C 222.61454,399.26866 224.75725,395.73798 225.01278,391.23895 C 225.15909,388.66307 224.70338,386.2659 223.60552,383.83631 C 223.03388,382.57127 221.5399,380.36171 220.46172,379.18673 L 219.57037,378.21535 L 218.46785,378.21821 C 213.47589,378.23111 210.05979,380.44264 209.01729,384.33638 C 208.30645,386.9913 208.7151,391.0676 209.97319,393.87167 C 210.98278,396.12187 213.13454,398.65567 214.79295,399.54718 C 216.29136,400.35267 218.12431,400.58168 219.60573,400.14849 z " />
    </g>
    <path
       style="stroke-linejoin:miter;stroke-opacity:1.0;fill-opacity:1.0;stroke:#000000;stroke-linecap:butt;stroke-width:1.0px;fill:none"
       id="path2287"
       d="M27.033983,2246.1714L40.2819646058,2224.9701976L53.5299462117,2203.76899519L53.5299462117,2178.76899519L60.4208801071,2154.73745279L73.6688617129,2133.53625039M53.5299462117,2203.76899519L72.1085668486,2187.04073003L85.3565484544,2165.83952763L92.2474823499,2141.80798523M53.5299462117,2203.76899519L66.7779278175,2182.56779279L80.0259094233,2161.36659038L80.0259094233,2136.36659038L86.9168433187,2112.33504799L100.164824925,2091.13384558M80.0259094233,2161.36659038L98.6045300603,2144.63832523L111.852511666,2123.43712282L118.743445562,2099.40558042M80.0259094233,2161.36659038L80.0259094233,2136.36659038L80.0259094233,2111.36659038L66.7779278175,2090.16538798L59.8869939221,2066.13384558L59.8869939221,2041.13384558M80.0259094233,2111.36659038L86.9168433187,2087.33504799L86.9168433187,2062.33504799L80.0259094233,2038.30350559M80.0259094233,2111.36659038L86.9168433187,2087.33504799L93.8077772142,2063.30350559L86.9168433187,2039.27196319L86.9168433187,2014.27196319L93.8077772142,1990.24042079M93.8077772142,2063.30350559L107.05575882,2042.10230318L113.946692715,2018.07076079L113.946692715,1993.07076079M93.8077772142,2063.30350559L107.05575882,2042.10230318L120.303740426,2020.90110078L120.303740426,1995.90110078L127.194674321,1971.86955838L140.442655927,1950.66835598M120.303740426,2020.90110078L138.882361063,2004.17283562L152.130342669,1982.97163322L159.021276564,1958.94009082M80.0259094233,2161.36659038L98.6045300603,2144.63832523L117.183150697,2127.91006007L124.074084593,2103.87851767L137.322066198,2082.67731526L155.900686835,2065.94905011M117.183150697,2127.91006007L139.653001855,2116.9507814L158.231622492,2100.22251624L171.479604097,2079.02131383M117.183150697,2127.91006007L130.431132303,2106.70885766L143.679113909,2085.50765526L143.679113909,2060.50765526L150.570047804,2036.47611286L163.81802941,2015.27491046M143.679113909,2085.50765526L162.257734546,2068.7793901L175.505716152,2047.5781877L182.396650047,2023.5466453M143.679113909,2085.50765526L150.570047804,2061.47611286L157.4609817,2037.44457046L150.570047804,2013.41302806L150.570047804,1988.41302806L157.4609817,1964.38148566M157.4609817,2037.44457046L170.708963306,2016.24336806L177.599897201,1992.21182566L177.599897201,1967.21182566M80.0259094233,2161.36659038L93.2738910292,2140.16538798L106.521872635,2118.96418558L106.521872635,2093.96418558L113.41280653,2069.93264318L126.660788136,2048.73144077M106.521872635,2118.96418558L125.100493272,2102.23592042L138.348474878,2081.03471801L145.239408773,2057.00317562M106.521872635,2118.96418558L119.769854241,2097.76298317L133.017835847,2076.56178077L133.017835847,2051.56178077L139.908769742,2027.53023837L153.156751348,2006.32903597M133.017835847,2076.56178077L151.596456484,2059.83351561L164.844438089,2038.63231321L171.735371985,2014.60077081M133.017835847,2076.56178077L133.017835847,2051.56178077L133.017835847,2026.56178077L119.769854241,2005.36057836L112.878920345,1981.32903597L112.878920345,1956.32903597M133.017835847,2026.56178077L139.908769742,2002.53023837L139.908769742,1977.53023837L133.017835847,1953.49869597M133.017835847,2026.56178077L139.908769742,2002.53023837L146.799703637,1978.49869597L139.908769742,1954.46715357L139.908769742,1929.46715357L146.799703637,1905.43561117M146.799703637,1978.49869597L160.047685243,1957.29749357L166.938619139,1933.26595117L166.938619139,1908.26595117M146.799703637,1978.49869597L160.047685243,1957.29749357L173.295666849,1936.09629116L173.295666849,1911.09629116L180.186600745,1887.06474877L193.43458235,1865.86354636M173.295666849,1936.09629116L191.874287486,1919.36802601L205.122269092,1898.1668236L212.013202987,1874.1352812M133.017835847,2076.56178077L151.596456484,2059.83351561L170.175077121,2043.10525045L177.066011016,2019.07370805L190.313992622,1997.87250565L208.892613259,1981.14424049M170.175077121,2043.10525045L192.644928278,2032.14597178L211.223548915,2015.41770662L224.471530521,1994.21650422M170.175077121,2043.10525045L183.423058726,2021.90404805L196.671040332,2000.70284564L196.671040332,1975.70284564L203.561974228,1951.67130324L216.809955833,1930.47010084M196.671040332,2000.70284564L215.249660969,1983.97458048L228.497642575,1962.77337808L235.38857647,1938.74183568M196.671040332,2000.70284564L203.561974228,1976.67130324L210.452908123,1952.63976085L203.561974228,1928.60821845L203.561974228,1903.60821845L210.452908123,1879.57667605M210.452908123,1952.63976085L223.700889729,1931.43855844L230.591823624,1907.40701604L230.591823624,1882.40701604M133.017835847,2076.56178077L133.017835847,2051.56178077L133.017835847,2026.56178077L119.769854241,2005.36057836L112.878920345,1981.32903597L112.878920345,1956.32903597M133.017835847,2026.56178077L139.908769742,2002.53023837L139.908769742,1977.53023837L133.017835847,1953.49869597M133.017835847,2026.56178077L133.017835847,2001.56178077L133.017835847,1976.56178077L119.769854241,1955.36057836L112.878920345,1931.32903597L112.878920345,1906.32903597M133.017835847,1976.56178077L139.908769742,1952.53023837L139.908769742,1927.53023837L133.017835847,1903.49869597M133.017835847,1976.56178077L119.769854241,1955.36057836L106.521872635,1934.15937596L84.0520214775,1923.20009729L65.4734008406,1906.47183213L52.2254192347,1885.27062973M106.521872635,1934.15937596L99.6309387396,1910.12783356L86.3829571337,1888.92663116L67.8043364968,1872.198366M106.521872635,1934.15937596L99.6309387396,1910.12783356L92.7400048441,1886.09629116L74.1613842072,1869.36802601L60.9134026014,1848.1668236L54.0224687059,1824.1352812M92.7400048441,1886.09629116L92.7400048441,1861.09629116L85.8490709487,1837.06474877L72.6010893429,1815.86354636M92.7400048441,1886.09629116L92.7400048441,1861.09629116L92.7400048441,1836.09629116L79.4920232383,1814.89508876L72.6010893429,1790.86354636L72.6010893429,1765.86354636M92.7400048441,1836.09629116L99.6309387396,1812.06474877L99.6309387396,1787.06474877L92.7400048441,1763.03320637M133.017835847,1976.56178077L139.908769742,1952.53023837L146.799703637,1928.49869597L139.908769742,1904.46715357L139.908769742,1879.46715357L146.799703637,1855.43561117M146.799703637,1928.49869597L160.047685243,1907.29749357L166.938619139,1883.26595117L166.938619139,1858.26595117M146.799703637,1928.49869597L146.799703637,1903.49869597L146.799703637,1878.49869597L133.551722032,1857.29749357L126.660788136,1833.26595117L126.660788136,1808.26595117M146.799703637,1878.49869597L153.690637533,1854.46715357L153.690637533,1829.46715357L146.799703637,1805.43561117M146.799703637,1878.49869597L139.908769742,1854.46715357L133.017835847,1830.43561117L114.43921521,1813.70734602L101.191233604,1792.50614361L94.3002997085,1768.47460121M133.017835847,1830.43561117L133.017835847,1805.43561117L126.126901951,1781.40406878L112.878920345,1760.20286637M133.017835847,1976.56178077L139.908769742,1952.53023837L146.799703637,1928.49869597L139.908769742,1904.46715357L139.908769742,1879.46715357L146.799703637,1855.43561117M146.799703637,1928.49869597L160.047685243,1907.29749357L166.938619139,1883.26595117L166.938619139,1858.26595117M146.799703637,1928.49869597L153.690637533,1904.46715357L160.581571428,1880.43561117L153.690637533,1856.40406878L153.690637533,1831.40406878L160.581571428,1807.37252638M160.581571428,1880.43561117L173.829553034,1859.23440877L180.72048693,1835.20286637L180.72048693,1810.20286637M160.581571428,1880.43561117L153.690637533,1856.40406878L146.799703637,1832.37252638L128.221083001,1815.64426122L114.973101395,1794.44305882L108.082167499,1770.41151642M146.799703637,1832.37252638L146.799703637,1807.37252638L139.908769742,1783.34098398L126.660788136,1762.13978158M146.799703637,1832.37252638L146.799703637,1807.37252638L146.799703637,1782.37252638L133.551722032,1761.17132397L126.660788136,1737.13978158L126.660788136,1712.13978158M146.799703637,1782.37252638L153.690637533,1758.34098398L153.690637533,1733.34098398L146.799703637,1709.30944158M146.799703637,1782.37252638L153.690637533,1758.34098398L160.581571428,1734.30944158L153.690637533,1710.27789918L153.690637533,1685.27789918L160.581571428,1661.24635678M160.581571428,1734.30944158L173.829553034,1713.10823918L180.72048693,1689.07669678L180.72048693,1664.07669678M160.581571428,1880.43561117L173.829553034,1859.23440877L187.07753464,1838.03320637L187.07753464,1813.03320637L193.968468535,1789.00166397L207.216450141,1767.80046156M187.07753464,1838.03320637L205.656155277,1821.30494121L218.904136883,1800.1037388L225.795070778,1776.07219641M187.07753464,1838.03320637L193.968468535,1814.00166397L200.859402431,1789.97012157L193.968468535,1765.93857917L193.968468535,1740.93857917L200.859402431,1716.90703677M200.859402431,1789.97012157L214.107384037,1768.76891917L220.998317932,1744.73737677L220.998317932,1719.73737677M200.859402431,1789.97012157L200.859402431,1764.97012157L200.859402431,1739.97012157L187.611420825,1718.76891917L180.72048693,1694.73737677L180.72048693,1669.73737677M200.859402431,1739.97012157L207.750336326,1715.93857917L207.750336326,1690.93857917L200.859402431,1666.90703677M160.581571428,1880.43561117L173.829553034,1859.23440877L187.07753464,1838.03320637L187.07753464,1813.03320637L193.968468535,1789.00166397L207.216450141,1767.80046156M187.07753464,1838.03320637L205.656155277,1821.30494121L218.904136883,1800.1037388L225.795070778,1776.07219641M187.07753464,1838.03320637L200.325516246,1816.83200396L213.573497852,1795.63080156L213.573497852,1770.63080156L220.464431747,1746.59925916L233.712413353,1725.39805676M213.573497852,1795.63080156L232.152118489,1778.9025364L245.400100094,1757.701334L252.29103399,1733.6697916M213.573497852,1795.63080156L213.573497852,1770.63080156L213.573497852,1745.63080156L200.325516246,1724.42959916L193.43458235,1700.39805676L193.43458235,1675.39805676M213.573497852,1745.63080156L220.464431747,1721.59925916L220.464431747,1696.59925916L213.573497852,1672.56771676M213.573497852,1745.63080156L220.464431747,1721.59925916L227.355365643,1697.56771676L220.464431747,1673.53617436L220.464431747,1648.53617436L227.355365643,1624.50463197M227.355365643,1697.56771676L240.603347248,1676.36651436L247.494281144,1652.33497196L247.494281144,1627.33497196M227.355365643,1697.56771676L240.603347248,1676.36651436L253.851328854,1655.16531195L253.851328854,1630.16531195L260.74226275,1606.13376956L273.990244355,1584.93256715M253.851328854,1655.16531195L272.429949491,1638.4370468L285.677931097,1617.23584439L292.568864992,1593.20430199M213.573497852,1795.63080156L232.152118489,1778.9025364L250.730739126,1762.17427124L257.621673021,1738.14272884L270.869654627,1716.94152644L289.448275264,1700.21326128M250.730739126,1762.17427124L273.200590283,1751.21499257L291.77921092,1734.48672741L305.027192526,1713.28552501M250.730739126,1762.17427124L263.978720731,1740.97306884L277.226702337,1719.77186643L277.226702337,1694.77186643L284.117636233,1670.74032404L297.365617838,1649.53912163M277.226702337,1719.77186643L295.805322974,1703.04360127L309.05330458,1681.84239887L315.944238475,1657.81085647M277.226702337,1719.77186643L284.117636233,1695.74032404L291.008570128,1671.70878164L284.117636233,1647.67723924L284.117636233,1622.67723924L291.008570128,1598.64569684M291.008570128,1671.70878164L304.256551734,1650.50757923L311.147485629,1626.47603683L311.147485629,1601.47603683M133.017835847,2076.56178077L151.596456484,2059.83351561L170.175077121,2043.10525045L177.066011016,2019.07370805L190.313992622,1997.87250565L208.892613259,1981.14424049M170.175077121,2043.10525045L192.644928278,2032.14597178L211.223548915,2015.41770662L224.471530521,1994.21650422M170.175077121,2043.10525045L188.753697757,2026.37698529L207.332318394,2009.64872013L214.22325229,1985.61717773L227.471233896,1964.41597533L246.049854533,1947.68771017M207.332318394,2009.64872013L229.802169552,1998.68944146L248.380790189,1981.9611763L261.628771795,1960.7599739M207.332318394,2009.64872013L214.22325229,1985.61717773L221.114186185,1961.58563534L214.22325229,1937.55409294L214.22325229,1912.55409294L221.114186185,1888.52255054M221.114186185,1961.58563534L234.362167791,1940.38443293L241.253101686,1916.35289053L241.253101686,1891.35289053M221.114186185,1961.58563534L234.362167791,1940.38443293L247.610149397,1919.18323053L247.610149397,1894.18323053L254.501083292,1870.15168813L267.749064898,1848.95048573M247.610149397,1919.18323053L266.188770034,1902.45496537L279.43675164,1881.25376297L286.327685535,1857.22222057M247.610149397,1919.18323053L266.188770034,1902.45496537L284.767390671,1885.72670021L291.658324566,1861.69515781L304.906306172,1840.49395541L323.484926809,1823.76569025M284.767390671,1885.72670021L307.237241828,1874.76742154L325.815862465,1858.03915638L339.063844071,1836.83795398M207.332318394,2009.64872013L229.802169552,1998.68944146L252.272020709,1987.73016279L265.520002315,1966.52896039L284.098622952,1949.80069523L306.56847411,1938.84141656M252.272020709,1987.73016279L276.892214535,1983.38895835L299.362065692,1972.42967968L317.940686329,1955.70141452M252.272020709,1987.73016279L270.850641346,1971.00189763L289.429261983,1954.27363248L296.320195879,1930.24209008L309.568177484,1909.04088767L328.146798121,1892.31262251M289.429261983,1954.27363248L311.899113141,1943.31435381L330.477733778,1926.58608865L343.725715383,1905.38488624M289.429261983,1954.27363248L302.677243589,1933.07243007L315.925225195,1911.87122767L315.925225195,1886.87122767L322.81615909,1862.83968527L336.064140696,1841.63848287M315.925225195,1911.87122767L334.503845832,1895.14296251L347.751827438,1873.9417601L354.642761333,1849.91021771M207.332318394,2009.64872013L220.5803,1988.44751773L233.828281606,1967.24631533L233.828281606,1942.24631533L240.719215501,1918.21477293L253.967197107,1897.01357052M233.828281606,1967.24631533L252.406902243,1950.51805017L265.654883849,1929.31684776L272.545817744,1905.28530536M233.828281606,1967.24631533L247.076263212,1946.04511292L260.324244818,1924.84391052L260.324244818,1899.84391052L267.215178713,1875.81236812L280.463160319,1854.61116571M260.324244818,1924.84391052L278.902865455,1908.11564536L292.15084706,1886.91444295L299.041780956,1862.88290056M260.324244818,1924.84391052L260.324244818,1899.84391052L260.324244818,1874.84391052L247.076263212,1853.64270811L240.185329316,1829.61116571L240.185329316,1804.61116571M260.324244818,1874.84391052L267.215178713,1850.81236812L267.215178713,1825.81236812L260.324244818,1801.78082572M260.324244818,1874.84391052L267.215178713,1850.81236812L274.106112609,1826.78082572L267.215178713,1802.74928332L267.215178713,1777.74928332L274.106112609,1753.71774092M274.106112609,1826.78082572L287.354094214,1805.57962332L294.24502811,1781.54808092L294.24502811,1756.54808092M274.106112609,1826.78082572L287.354094214,1805.57962332L300.60207582,1784.37842091L300.60207582,1759.37842091L307.493009716,1735.34687851L320.740991321,1714.14567611M300.60207582,1784.37842091L319.180696457,1767.65015575L332.428678063,1746.44895335L339.319611958,1722.41741095M260.324244818,1924.84391052L278.902865455,1908.11564536L297.481486092,1891.3873802L304.372419987,1867.3558378L317.620401593,1846.1546354L336.19902223,1829.42637024M297.481486092,1891.3873802L319.951337249,1880.42810153L338.529957886,1863.69983637L351.777939492,1842.49863397M297.481486092,1891.3873802L310.729467697,1870.1861778L323.977449303,1848.98497539L323.977449303,1823.98497539L330.868383199,1799.95343299L344.116364804,1778.75223059M323.977449303,1848.98497539L342.55606994,1832.25671023L355.804051546,1811.05550783L362.694985441,1787.02396543M323.977449303,1848.98497539L330.868383199,1824.95343299L337.759317094,1800.92189059L330.868383199,1776.8903482L330.868383199,1751.8903482L337.759317094,1727.8588058M337.759317094,1800.92189059L351.0072987,1779.72068819L357.898232595,1755.68914579L357.898232595,1730.68914579M260.324244818,1924.84391052L267.215178713,1900.81236812L274.106112609,1876.78082572L267.215178713,1852.74928332L267.215178713,1827.74928332L274.106112609,1803.71774092M274.106112609,1876.78082572L287.354094214,1855.57962332L294.24502811,1831.54808092L294.24502811,1806.54808092M274.106112609,1876.78082572L280.997046504,1852.74928332L287.887980399,1828.71774092L280.997046504,1804.68619852L280.997046504,1779.68619852L287.887980399,1755.65465613M287.887980399,1828.71774092L301.135962005,1807.51653852L308.026895901,1783.48499612L308.026895901,1758.48499612M287.887980399,1828.71774092L280.997046504,1804.68619852L274.106112609,1780.65465613L255.527491972,1763.92639097L242.279510366,1742.72518856L235.38857647,1718.69364617M274.106112609,1780.65465613L274.106112609,1755.65465613L267.215178713,1731.62311373L253.967197107,1710.42191132M274.106112609,1780.65465613L274.106112609,1755.65465613L274.106112609,1730.65465613L260.858131003,1709.45345372L253.967197107,1685.42191132L253.967197107,1660.42191132M274.106112609,1730.65465613L280.997046504,1706.62311373L280.997046504,1681.62311373L274.106112609,1657.59157133M274.106112609,1730.65465613L280.997046504,1706.62311373L287.887980399,1682.59157133L280.997046504,1658.56002893L280.997046504,1633.56002893L287.887980399,1609.52848653M287.887980399,1682.59157133L301.135962005,1661.39036893L308.026895901,1637.35882653L308.026895901,1612.35882653M287.887980399,1828.71774092L301.135962005,1807.51653852L314.383943611,1786.31533612L314.383943611,1761.31533612L321.274877506,1737.28379372L334.522859112,1716.08259131M314.383943611,1786.31533612L332.962564248,1769.58707096L346.210545854,1748.38586855L353.101479749,1724.35432615M314.383943611,1786.31533612L321.274877506,1762.28379372L328.165811402,1738.25225132L321.274877506,1714.22070892L321.274877506,1689.22070892L328.165811402,1665.18916652M328.165811402,1738.25225132L341.413793008,1717.05104891L348.304726903,1693.01950652L348.304726903,1668.01950652M328.165811402,1738.25225132L328.165811402,1713.25225132L328.165811402,1688.25225132L314.917829796,1667.05104891L308.026895901,1643.01950652L308.026895901,1618.01950652M328.165811402,1688.25225132L335.056745297,1664.22070892L335.056745297,1639.22070892L328.165811402,1615.18916652" />
  </g>
</svg>
